<svg width="101" height="101" viewBox="0 0 101 101" fill="none" xmlns="http://www.w3.org/2000/svg">
<path d="M81.6583 30.6912C81.5676 30.6005 81.467 30.5196 81.3585 30.4466C81.252 30.3756 81.1376 30.3144 81.0192 30.2651C80.8989 30.2158 80.7746 30.1783 80.6503 30.1527C80.0092 30.0225 79.3284 30.2336 78.869 30.6912C78.5021 31.0601 78.291 31.5671 78.291 32.0859C78.291 32.2161 78.3048 32.3443 78.3305 32.4725C78.3561 32.5988 78.3936 32.7231 78.4429 32.8414C78.4922 32.9598 78.5534 33.0742 78.6244 33.1827C78.6954 33.2892 78.7781 33.3898 78.869 33.4825C79.2359 33.8494 79.7449 34.0605 80.2637 34.0605C80.3919 34.0605 80.5221 34.0467 80.6503 34.0211C80.7746 33.9954 80.8989 33.9579 81.0192 33.9086C81.1376 33.8593 81.252 33.7982 81.3585 33.7271C81.467 33.6542 81.5676 33.5733 81.6583 33.4825C81.7511 33.3898 81.8319 33.2892 81.9049 33.1827C81.9761 33.0742 82.0371 32.9598 82.0864 32.8414C82.1357 32.7231 82.1732 32.5988 82.1989 32.4725C82.2245 32.3443 82.2363 32.2161 82.2363 32.0859C82.2363 31.5675 82.0272 31.0583 81.6583 30.6912Z" fill="white" fill-opacity="0.9"/>
<path d="M22.7428 76.1195C22.7191 75.9932 22.6797 75.8689 22.6303 75.7506C22.581 75.6322 22.5218 75.5178 22.4508 75.4093C22.3778 75.3028 22.295 75.2002 22.2042 75.1095C22.1135 75.0187 22.0129 74.9359 21.9044 74.8649C21.7979 74.7938 21.6835 74.7327 21.5651 74.6834C21.4448 74.6341 21.3205 74.5966 21.1942 74.5709C20.9398 74.5196 20.6794 74.5196 20.4249 74.5709C20.2987 74.5966 20.1744 74.6341 20.056 74.6834C19.9357 74.7327 19.8213 74.7938 19.7147 74.8649C19.6063 74.9359 19.5056 75.0187 19.4149 75.1095C19.3242 75.2002 19.2413 75.3028 19.1703 75.4093C19.0993 75.5178 19.0381 75.6322 18.9888 75.7506C18.9395 75.8689 18.9 75.9932 18.8764 76.1195C18.8507 76.2479 18.8369 76.3759 18.8369 76.5061C18.8369 76.6343 18.8507 76.7626 18.8764 76.8908C18.9 77.017 18.9395 77.1413 18.9888 77.2597C19.0381 77.378 19.0993 77.4925 19.1703 77.601C19.2413 77.7075 19.3242 77.8101 19.4149 77.9008C19.5056 77.9915 19.6063 78.0744 19.7147 78.1454C19.8213 78.2164 19.9357 78.2776 20.056 78.3269C20.1744 78.3762 20.2987 78.4137 20.4249 78.4393C20.5512 78.465 20.6814 78.4788 20.8096 78.4788C20.9378 78.4788 21.068 78.465 21.1942 78.4393C21.3205 78.4137 21.4448 78.3762 21.5651 78.3269C21.6835 78.2776 21.7979 78.2164 21.9044 78.1454C22.0129 78.0744 22.1133 77.9915 22.2042 77.9008C22.295 77.8101 22.3778 77.7075 22.4508 77.601C22.5218 77.4925 22.581 77.378 22.6303 77.2597C22.6797 77.1413 22.7191 77.017 22.7428 76.8908C22.7684 76.7626 22.7822 76.6343 22.7822 76.5061C22.7822 76.3759 22.7684 76.2477 22.7428 76.1195Z" fill="white" fill-opacity="0.9"/>
<path d="M101 43.9118C101 41.1077 99.1796 38.7207 96.6588 37.8707C96.3376 23.2425 84.3383 11.4414 69.6345 11.4414H31.3657C16.6619 11.4414 4.66258 23.2425 4.34143 37.8707C1.82037 38.7207 0 41.1075 0 43.9118C0 44.9827 0.273411 46.0079 0.758882 46.9108C0.654726 47.4567 0.602056 48.0126 0.602056 48.5732V48.7129C0.602056 51.4864 1.88803 53.9651 3.89502 55.5842C1.88724 57.2166 0.602056 59.7053 0.602056 62.4887C0.602056 65.4702 2.07662 68.1138 4.33453 69.7288V74.9895C4.33453 82.9961 10.8484 89.5098 18.8549 89.5098H82.1449C90.1516 89.5098 96.6653 82.9959 96.6653 74.9895V69.7288C98.9232 68.114 100.398 65.4704 100.398 62.4887C100.398 59.7562 99.1443 57.2839 97.1703 55.6432C99.1396 54.0233 100.398 51.5685 100.398 48.8253V48.6856C100.398 48.0968 100.34 47.5131 100.225 46.9408C100.72 46.0304 101 44.9944 101 43.9118ZM8.68621 34.1477H72.2929C73.3824 34.1477 74.2655 33.2646 74.2655 32.1751C74.2655 31.0856 73.3824 30.2024 72.2929 30.2024H9.81142C13.1444 21.5458 21.5493 15.3865 31.3657 15.3865H69.6345C82.0508 15.3865 92.2092 25.2406 92.7016 37.5385H8.29859C8.34475 36.3849 8.47613 35.2526 8.68621 34.1477ZM4.54738 62.4883C4.54738 59.7588 6.768 57.5381 9.49757 57.5381H32.6365L43.5544 67.4385H9.49757C6.768 67.4385 4.54738 65.2181 4.54738 62.4883ZM4.73991 50.0714C4.82315 50.0933 4.90699 50.1138 4.99142 50.1324C6.45533 50.4547 7.88729 51.7109 9.40328 53.0409C9.60942 53.2218 9.8201 53.4066 10.0357 53.593H9.42793C7.2081 53.5928 5.32993 52.1035 4.73991 50.0714ZM65.6413 67.7764L76.9314 57.5385L86.7757 57.651L70.6254 72.296L65.6413 67.7764ZM67.192 74.5084H58.2171L61.6628 71.3839H63.7465L67.192 74.5084ZM71.0582 57.5381L54.7839 72.2958L38.5097 57.5381H71.0582ZM59.3151 53.5928C59.4826 53.4267 59.6459 53.2624 59.8063 53.101C61.6865 51.2098 63.1715 49.716 66.2944 49.716C69.4175 49.716 70.9023 51.2098 72.7825 53.1014C72.9427 53.2626 73.106 53.4269 73.2735 53.5928H59.3151ZM27.7269 53.5928C27.8942 53.4269 28.0577 53.2624 28.2179 53.1012C30.0981 51.2098 31.5831 49.716 34.706 49.716C37.8287 49.716 39.3137 51.2098 41.1937 53.101C41.3541 53.2624 41.5174 53.4267 41.6849 53.5928H27.7269ZM82.1451 85.5643H18.8551C13.0239 85.5643 8.28004 80.8203 8.28004 74.9893V71.3842H47.9053L51.3509 74.5087H28.7805C27.691 74.5087 26.8079 75.3919 26.8079 76.4814C26.8079 77.5709 27.691 78.4541 28.7805 78.4541H92.137C90.6994 82.5884 86.7631 85.5643 82.1451 85.5643ZM92.7202 74.5084H74.0588L77.5044 71.3839H92.7202V74.5084ZM91.5022 67.4389H81.8547L92.6302 57.6677C94.8268 58.1814 96.4524 60.1661 96.4524 62.4887C96.4524 65.2181 94.2318 67.4389 91.5022 67.4389ZM90.9641 53.5928C90.9813 53.5778 90.9986 53.563 91.0158 53.548C91.0225 53.5423 91.029 53.5366 91.0357 53.5309C91.0582 53.5114 91.0807 53.4916 91.1032 53.4721C91.2704 53.3265 91.435 53.1823 91.5965 53.0407C92.4063 52.3303 93.1922 51.6411 93.9716 51.1037C94.6514 50.6352 95.3264 50.2823 96.0086 50.1322C96.0323 50.1269 96.0559 50.1215 96.0794 50.1162C96.082 50.1156 96.0847 50.115 96.0873 50.1142C96.1082 50.1093 96.1291 50.1044 96.1498 50.0992C96.1542 50.0982 96.1585 50.0971 96.1626 50.0961C96.1812 50.0915 96.1995 50.087 96.2179 50.0823C96.2271 50.0799 96.2362 50.0775 96.2455 50.075C96.2583 50.0716 96.2713 50.0683 96.2842 50.0647C96.2875 50.0641 96.2905 50.0633 96.2936 50.0624C95.8137 51.8922 94.2955 53.306 92.4093 53.6333C92.2801 53.6066 92.1469 53.5928 92.0116 53.5928H90.9641ZM95.1601 46.2796C94.8534 46.3472 94.5553 46.4321 94.2653 46.5323C92.2712 47.2205 90.65 48.6237 89.0806 50.0002C89.052 50.0253 89.0236 50.0503 88.995 50.0754C87.1845 51.6638 85.4594 53.177 83.2678 53.5934H80.6745C78.4555 53.2127 77.1567 51.9064 75.5805 50.3206C73.5658 48.2937 71.0586 45.7712 66.2944 45.7712C61.5304 45.7712 59.0232 48.2935 57.0083 50.3202C55.4318 51.9062 54.1329 53.2127 51.9131 53.5934H49.0869C46.8671 53.2127 45.5683 51.9062 43.9917 50.3202C41.977 48.2935 39.4698 45.7712 34.706 45.7712C29.9418 45.7712 27.4346 48.2937 25.4199 50.3206C23.8435 51.9064 22.5449 53.2127 20.3257 53.5934H18.932C16.1439 53.5934 14.1335 51.8301 12.0054 49.9629C10.1811 48.3627 8.29484 46.7078 5.84046 46.1673C5.29225 46.0466 4.80007 45.7347 4.45466 45.2889C4.38522 45.1993 4.30908 45.1169 4.22721 45.0419C4.04691 44.7012 3.94552 44.3152 3.94552 43.9122C3.94532 42.5731 5.03443 41.484 6.37327 41.484H94.6269C95.9658 41.484 97.0549 42.5731 97.0549 43.912C97.0549 45.0421 96.2581 46.0377 95.1601 46.2796Z" fill="white" fill-opacity="0.9"/>
</svg>
