<svg width="86" height="86" viewBox="0 0 86 86" fill="none" xmlns="http://www.w3.org/2000/svg">
<g clip-path="url(#clip0)">
<path d="M84.3203 34.6855H70.5469V31.1301C70.5469 30.2024 69.7947 29.4504 68.8672 29.4504H32.5859C31.6584 29.4504 30.9062 30.2024 30.9062 31.1301C30.9062 32.0578 31.6584 32.8098 32.5859 32.8098H67.1875V45.6873C67.1875 56.9997 61.1478 67.5135 51.3954 73.2342H19.1515C9.39903 67.5137 3.35938 56.9997 3.35938 45.6875V32.81H14.6133C15.5408 32.81 16.293 32.058 16.293 31.1303C16.293 30.2026 15.5408 29.4506 14.6133 29.4506H1.67969C0.752164 29.4506 0 30.2026 0 31.1303V45.6875C0 52.0367 1.70656 58.2623 4.93526 63.6909C7.11264 67.3521 9.93787 70.5851 13.2464 73.2343H1.67969C0.752164 73.2343 0 73.9863 0 74.914C0 81.0269 4.97305 86 11.0859 86H63.4922C69.6051 86 74.5781 81.0269 74.5781 74.914C74.5781 73.9863 73.826 73.2343 72.8984 73.2343H57.3005C60.3456 70.7961 62.9799 67.8622 65.0778 64.5559H69.8191C78.7412 64.5559 86 57.2971 86 48.375V36.3652C86 35.4375 85.248 34.6855 84.3203 34.6855ZM71.0348 76.5937C70.2659 80.0492 67.1759 82.6406 63.4922 82.6406H11.0859C7.40222 82.6406 4.31243 80.0492 3.5433 76.5937H18.7015H51.8454H71.0348ZM70.5469 45.6875V44.7636H75.9219V48.375C75.9219 51.7401 73.1842 54.4778 69.8191 54.4778H69.4376C70.1708 51.6213 70.5469 48.6681 70.5469 45.6875ZM82.6406 48.375C82.6406 55.4448 76.8889 61.1965 69.8191 61.1965H66.9602C67.4966 60.1012 67.9756 58.9798 68.3942 57.8372H69.8191C75.0367 57.8372 79.2812 53.5924 79.2812 48.375V43.084C79.2812 42.1563 78.5291 41.4043 77.6016 41.4043H70.5469V38.0449H82.6406V48.375Z" fill="white"/>
<path d="M36.8777 9.29595L36.0038 8.19861C34.7208 6.58813 34.719 4.33684 35.9992 2.72401C36.5761 1.99737 36.4544 0.940849 35.7278 0.364213C35.001 -0.21276 33.9447 -0.0909825 33.3678 0.63565C31.11 3.48037 31.1134 7.45098 33.3761 10.2917L34.25 11.389C35.9265 13.4937 35.929 16.4356 34.2561 18.5435L33.3605 19.6719C32.7837 20.3985 32.9053 21.455 33.6319 22.0317C33.9408 22.2767 34.3091 22.3958 34.675 22.3958C35.1698 22.3958 35.6601 22.1781 35.9919 21.7602L36.8875 20.6318C39.538 17.2923 39.5342 12.6308 36.8777 9.29595Z" fill="white"/>
<path d="M46.1873 13.0726L45.3134 11.9754C44.0304 10.3647 44.0286 8.11345 45.3088 6.50062C45.8856 5.77398 45.764 4.71746 45.0374 4.14082C44.3106 3.56385 43.2542 3.68563 42.6774 4.41226C40.4196 7.25698 40.4229 11.2276 42.6857 14.0684L43.5596 15.1658C45.2359 17.2706 45.2384 20.2127 43.5655 22.3204L42.67 23.4487C42.0932 24.1753 42.2148 25.2318 42.9415 25.8085C43.2504 26.0535 43.6187 26.1724 43.9846 26.1724C44.4794 26.1724 44.9699 25.9546 45.3014 25.5369L46.1967 24.4086C48.8474 21.0692 48.8436 16.4078 46.1873 13.0726Z" fill="white"/>
<path d="M27.5672 13.0726L26.6933 11.9754C25.4103 10.3649 25.4085 8.11345 26.6886 6.50061C27.2654 5.77398 27.1437 4.71745 26.4171 4.14065C25.6903 3.56384 24.634 3.68579 24.0572 4.41209C21.7995 7.2568 21.8028 11.2276 24.0656 14.0683L24.9395 15.1656C26.6158 17.2704 26.6183 20.2126 24.9455 22.3201L24.0499 23.4483C23.4731 24.175 23.5946 25.2315 24.3212 25.8083C24.6301 26.0533 24.9983 26.1724 25.3643 26.1724C25.8591 26.1724 26.3494 25.9548 26.681 25.537L27.5768 24.4086C30.2273 21.0692 30.2235 16.4077 27.5672 13.0726Z" fill="white"/>
<path d="M25.2422 29.9421C24.9298 29.6297 24.4964 29.45 24.0547 29.45C23.6129 29.45 23.1796 29.6297 22.8671 29.9421C22.5549 30.2562 22.375 30.6879 22.375 31.1296C22.375 31.5714 22.5547 32.0048 22.8671 32.3189C23.1796 32.6313 23.6129 32.8093 24.0547 32.8093C24.4964 32.8093 24.9298 32.6313 25.2422 32.3189C25.5562 32.0048 25.7344 31.5731 25.7344 31.1296C25.7344 30.6879 25.5562 30.2545 25.2422 29.9421Z" fill="white"/>
<path d="M60.804 44.0078C59.8765 44.0078 59.1243 44.7598 59.1243 45.6875C59.1243 51.9223 56.5954 58.0497 52.1859 62.4983C51.5328 63.1571 51.5377 64.2207 52.1965 64.8737C52.524 65.1984 52.9515 65.3605 53.379 65.3605C53.8113 65.3603 54.2437 65.1944 54.5721 64.863C59.6 59.7903 62.4837 52.8011 62.4837 45.6875C62.4837 44.7598 61.7316 44.0078 60.804 44.0078Z" fill="white"/>
<path d="M49.3639 67.0574C48.908 66.2493 47.8836 65.9639 47.0757 66.4196L47.0374 66.4413C46.2293 66.8972 45.9439 67.9216 46.3996 68.7295C46.7083 69.2768 47.2776 69.5843 47.8641 69.5843C48.1436 69.5843 48.4271 69.5143 48.6878 69.3673L48.7261 69.3456C49.5342 68.8898 49.8196 67.8653 49.3639 67.0574Z" fill="white"/>
</g>
<defs>
<clipPath id="clip0">
<rect width="86" height="86" fill="white"/>
</clipPath>
</defs>
</svg>
