<svg width="93" height="96" viewBox="0 0 93 96" fill="none" xmlns="http://www.w3.org/2000/svg">
<path d="M87.2938 42.4916C87.2938 41.2736 87.88 33.9587 84.1081 30.3641C83.8846 26.9288 81.4352 24.0619 78.174 23.4117C77.5892 22.8597 76.9738 22.3062 76.3341 21.7578C75.8526 18.4819 73.2713 15.8835 70.109 15.3933C69.2687 15.2632 68.4073 15.2841 67.5748 15.4598C65.5979 14.2576 63.5135 13.1133 61.3589 12.0514C59.8144 10.0293 57.3401 8.93449 54.8695 9.17529C52.9799 8.42426 51.0242 7.72932 49.0398 7.10033C48.346 5.03104 46.786 3.33861 44.8175 2.52313C42.9747 1.75957 40.8745 1.80403 39.0641 2.64517C38.0304 3.12527 37.1063 3.85064 36.3862 4.75444C34.9063 0.985864 30.6551 -0.969739 26.9612 0.479508C25.9674 0.869495 25.0557 1.48028 24.3065 2.25877C20.7776 0.60453 16.4958 2.14598 14.717 5.68958C10.7855 7.28205 7.20287 10.211 6.04664 14.5704C5.80499 15.4816 5.68474 16.4236 5.67346 17.3674C5.66971 17.6819 5.68445 45.8436 5.68445 45.8436L5.68474 51.7429C5.68503 53.2975 5.68792 56.5994 5.68792 56.5994C5.68965 58.4371 5.60929 60.2871 5.99143 62.0941C6.33165 63.7024 6.92249 65.2477 7.66306 66.7029C9.21646 69.7554 11.3792 72.4513 13.7535 74.8587C18.5785 79.7515 24.3634 83.6078 30.3923 86.7245C36.7204 89.9959 43.4514 92.4949 50.3535 94.1118C57.1167 95.6962 64.235 96.5284 71.149 95.6312C76.942 94.8796 83.8158 92.6856 86.4914 86.7716C86.5483 86.6457 86.6087 86.4872 86.6694 86.3106C87.0932 85.0813 87.2932 83.7812 87.2932 82.4764V42.4916H87.2938ZM34.9279 9.32537C36.4952 9.32537 37.9758 10.2062 38.7782 11.5925C37.7217 12.7869 37.067 14.3039 36.8852 15.8916C35.7755 14.7882 34.3417 14.0521 32.7895 13.8241C32.3608 12.9746 31.7827 12.2113 31.0806 11.5826C31.874 10.2017 33.3187 9.32537 34.9279 9.32537ZM84.2205 37.7661C83.0394 37.3149 81.8476 37.1735 80.5946 37.3659C81.678 36.6841 82.5608 35.7302 83.1741 34.6068C83.7366 35.1522 84.2668 36.8432 84.2205 37.7661ZM71.58 41.8217C71.432 39.7193 70.457 37.8171 68.9614 36.5036C69.8072 34.6527 71.7818 33.5735 73.7404 33.9118C75.6884 34.2484 77.2406 35.8973 77.4551 37.9334C77.5785 39.1043 77.2695 40.3122 76.5845 41.2565C74.8987 40.8331 73.1198 41.0429 71.58 41.8217ZM38.005 33.8927C38.231 32.8168 38.8201 31.853 39.6962 31.1784C40.6331 30.5467 41.6416 30.1835 42.7762 30.2841C43.8859 30.3823 44.925 30.925 45.6763 31.7712C43.961 33.4995 43.2069 36.0202 43.5977 38.4529C43.1268 38.367 42.6484 38.3273 42.1689 38.336C41.454 36.3246 39.9324 34.6993 38.005 33.8927ZM28.5637 30.7815C28.1284 28.9026 28.919 26.8584 30.4952 25.8134C32.2114 24.6757 34.5209 24.9034 36.0009 26.3481C36.7906 27.1192 37.282 28.1769 37.3768 29.2944C36.2377 30.376 35.4665 31.7865 35.158 33.3386C34.6369 33.3443 34.1215 33.4082 33.6176 33.5269C32.3634 31.9589 30.5368 30.9596 28.5637 30.7815ZM20.8794 22.9012C21.8449 22.1123 23.1054 21.7641 24.3391 21.9503C25.7512 22.1636 26.984 23.0934 27.6442 24.3934C26.7771 25.3181 26.1628 26.4496 25.8324 27.6634C24.4357 26.3198 22.5606 25.5586 20.6493 25.5864C20.6455 24.8556 20.5386 24.1282 20.3339 23.4317C20.782 22.9137 20.6846 23.0605 20.8794 22.9012ZM33.6332 17.1541C34.2218 17.4354 34.7499 17.8487 35.1719 18.3571C36.1868 19.5805 36.4865 21.2679 36.0053 22.7959C34.1336 21.9046 31.9431 21.8819 30.0437 22.7037C29.4193 21.6012 28.5354 20.6693 27.476 20.009C28.0365 18.0874 29.7937 16.6638 31.7356 16.7253C31.7599 16.7262 33.0187 16.8601 33.6332 17.1541ZM62.2483 28.8793C63.0848 29.4829 63.706 30.3533 64.0017 31.3636C64.294 32.3623 64.2197 33.3509 63.9084 34.3305C63.8641 34.4525 63.8081 34.5698 63.7537 34.6876C61.7893 34.7998 59.9442 35.709 58.6313 37.1779C58.4874 37.1412 58.3457 37.0983 58.207 37.0473C58.1651 34.7473 57.1152 32.6542 55.4615 31.272C56.3478 28.4359 59.7988 27.183 62.207 28.8519C62.2208 28.8614 62.2347 28.8704 62.2483 28.8793ZM51.8997 32.6932C53.5687 33.1131 54.8987 34.5775 55.2369 36.3105C55.5872 38.1062 54.7964 39.9896 53.3427 41.0205C51.6873 42.1944 49.3968 42.0094 47.8882 40.6616C46.2819 39.2266 45.9315 36.6826 47.0071 34.7962C47.9295 33.1784 50.0339 32.2239 51.8997 32.6932ZM43.1782 22.0878C42.5842 23.7704 42.5912 25.6433 43.1673 27.3238C42.1061 27.2048 41.0329 27.3247 40.0243 27.6756C39.724 26.5463 39.1762 25.5052 38.4131 24.6291C39.0881 23.1671 39.2979 21.5054 39.0019 19.9093C40.6001 19.1663 42.5316 19.5101 43.8292 20.7167C43.811 20.7457 43.3349 21.6438 43.1782 22.0878ZM59.7098 43.5207C59.3233 41.91 59.7789 40.1436 60.9666 38.9772C62.2824 37.6852 64.2969 37.2839 65.965 38.0516C67.4615 38.7406 68.5405 40.2707 68.694 41.9574C68.8536 43.7098 67.9748 45.464 66.5385 46.3968C64.9045 47.4581 62.7461 47.26 61.267 46.0465C61.0681 45.8833 59.9775 44.6357 59.7098 43.5207ZM69.4485 31.8205C68.4564 32.391 67.5973 33.1951 66.9501 34.1595C67.4207 31.6605 66.6258 29.0109 64.8154 27.209C66.1853 25.0269 69.0903 24.451 71.1522 25.9405C70.6385 26.5633 70.2203 27.2668 69.922 28.0319C69.4534 29.2332 69.2944 30.5416 69.4485 31.8205ZM62.7972 18.9011C61.6104 20.8755 61.3534 23.3252 62.1249 25.5135C60.6056 24.9833 58.9337 24.9818 57.4112 25.4998C57.563 23.9441 57.2435 22.3692 56.4975 21.0077C57.1077 19.6276 58.3622 18.6391 59.7783 18.3646C60.2619 18.2709 60.7643 18.2605 61.2664 18.3461C61.8127 18.4329 62.3275 18.6233 62.7972 18.9011ZM54.562 24.7419C54.562 26.5606 53.4468 28.2891 51.8277 29.0025C49.9723 29.8198 47.6936 29.1789 46.4911 27.5082C45.3797 25.9647 45.3193 23.7585 46.3631 22.1621C47.4245 20.5386 49.4676 19.7518 51.2973 20.2898C53.1791 20.843 54.562 22.7198 54.562 24.7419ZM49.2681 11.2374C49.3311 10.9432 49.3734 10.6442 49.4023 10.3444C49.9058 10.5123 50.4079 10.683 50.9059 10.8594C50.5316 11.175 50.1876 11.5277 49.8789 11.9138C49.6893 11.6754 49.4849 11.4505 49.2681 11.2374ZM47.6477 13.8077C48.4088 14.7697 48.7802 16.03 48.6374 17.2907C47.6179 17.5052 46.6562 17.94 45.8147 18.5541C44.1807 17.0105 41.9151 16.2804 39.7226 16.6149C39.7807 14.9108 40.758 13.3034 42.2625 12.576C43.7006 11.8804 45.493 11.9947 46.7782 12.9683C47.1898 13.2801 47.3982 13.4923 47.6477 13.8077ZM29.4734 14.1162C27.2543 14.8678 25.4789 16.7017 24.7571 18.9954C23.8804 18.8617 22.9817 18.8924 22.1151 19.0837C21.7151 18.0641 21.6668 16.8995 22.0105 15.8516C22.5299 14.5533 23.3685 13.5123 24.6733 13.0029C25.9379 12.5091 27.387 12.6428 28.5475 13.3577C28.8895 13.5684 29.1999 13.8247 29.4734 14.1162ZM18.9083 20.7126C17.6133 19.1374 15.7269 18.1581 13.7281 18.0355C13.5969 16.44 14.3062 14.8264 15.5492 13.8703C16.8132 12.8982 18.5236 12.729 19.9639 13.3741C19.718 13.7913 19.509 14.2305 19.3468 14.6858C18.6236 16.4099 18.7678 18.5717 19.4604 20.2736C19.2693 20.4106 19.0855 20.5574 18.9083 20.7126ZM9.38787 18.3004C8.92364 17.0699 8.98926 15.669 9.58501 14.479C10.2923 13.0668 11.6749 12.1403 13.2066 12.0102C11.5124 13.6406 10.6141 16.0632 10.8586 18.4446C10.4611 18.5872 10.0773 18.7668 9.70844 18.9784C9.41359 18.4672 9.47574 18.5332 9.38787 18.3004ZM10.6779 21.867C12.9167 20.2202 16.2024 21.0841 17.3662 23.7185C17.6772 24.5498 17.8397 25.3823 17.718 26.2765C16.2915 26.9553 15.0971 28.0996 14.3418 29.522C12.2944 27.2188 10.7707 24.9413 9.79428 22.7311C9.96425 22.5133 10.5695 21.9467 10.6779 21.867ZM19.7336 28.6973C21.7946 28.1984 24.0671 29.3317 24.9251 31.4138C23.1127 32.243 21.7154 33.7791 21.0297 35.6681C19.3919 34.4075 17.8871 33.1125 16.5288 31.7963C16.869 30.6756 17.5997 29.7404 18.6059 29.1553C18.8586 29.0064 19.3468 28.791 19.7336 28.6973ZM27.2569 33.7868C28.5357 33.5911 29.8567 33.9781 30.8447 34.85C29.1424 36.1649 28.1004 38.1754 27.9165 40.3002C26.3917 39.4012 24.9239 38.4634 23.5286 37.4942C23.8544 35.6914 25.189 34.2395 26.9748 33.8399C27.2002 33.7895 27.1627 33.8011 27.2569 33.7868ZM32.3319 37.4414C33.7376 36.1834 35.8223 35.9671 37.4419 36.9118C38.2524 37.3844 38.912 38.119 39.3072 38.9891C37.2612 39.9407 35.72 41.8318 35.1667 44.0792C33.7107 43.4121 32.2796 42.701 30.8843 41.9586C30.4785 40.0755 31.0999 38.5442 32.3319 37.4414ZM40.5857 41.6656C42.3322 40.9104 44.4174 41.4141 45.6691 42.8848C46.9253 44.3609 47.1291 46.534 46.1865 48.2417C43.3635 47.3916 40.6192 46.3511 37.8758 45.2653C38.0937 43.7471 39.0404 42.4089 40.4131 41.7447C40.7186 41.5961 40.5276 41.6907 40.5857 41.6656ZM49.7509 48.6833C49.8905 46.9085 51.0236 45.3295 52.6692 44.7127C54.3746 44.0733 56.331 44.5537 57.5387 45.9656C58.5865 47.1905 58.8175 49.6674 58.3316 50.8555C55.5312 50.504 52.6501 49.9568 49.7393 49.2237C49.7006 48.1417 49.737 48.8617 49.7509 48.6833ZM61.8295 49.7005C63.6985 50.3232 65.7578 50.1722 67.5135 49.2493C67.5627 49.9299 67.6988 50.6052 67.9225 51.2539C65.8306 51.3681 63.6121 51.3347 61.2895 51.1551C61.4288 50.6496 61.5155 50.1293 61.5491 49.6008C62.3752 49.9135 61.7355 49.6692 61.8295 49.7005ZM71.9295 45.1251C73.6288 43.6314 76.248 43.6928 77.8823 45.2549C78.744 46.0784 79.2574 47.2418 79.3057 48.4518C77.0955 49.6829 74.2989 50.53 70.9681 50.9746C69.9457 49.1452 70.311 46.5472 71.9295 45.1251ZM79.2288 42.5408C79.6002 41.9276 79.8789 41.2646 80.0688 40.5762C81.562 39.9959 83.299 40.2722 84.5512 41.2873C84.3179 43.33 83.3727 45.1603 81.9193 46.5564C81.4782 44.9466 80.5347 43.5377 79.2288 42.5408ZM79.3704 34.628C77.9358 32.0926 75.1152 30.6219 72.2847 30.9021C72.272 28.7233 73.7829 26.7781 75.8566 26.3401C77.5777 25.9763 79.3817 26.711 80.4021 28.1829C80.9432 28.9635 81.2383 29.9117 81.2409 30.8716C81.2406 32.3886 80.5226 33.7746 79.3704 34.628ZM73.4097 23.9709C70.966 21.7772 67.3268 21.5098 64.6018 23.3151C64.4619 21.4919 65.3704 19.7002 66.9403 18.8342C68.3307 18.0674 70.0373 18.1304 71.3817 18.9736C72.1156 19.434 72.7163 20.1092 73.0889 20.9089C73.3354 21.4376 73.6421 22.9478 73.4097 23.9709ZM59.8353 15.3461C57.6916 15.5816 55.7098 16.8103 54.4842 18.6457C53.6167 17.9746 52.6065 17.5029 51.543 17.2835C51.5925 16.5459 51.5387 15.8006 51.3838 15.0836C51.9584 13.5469 53.3236 12.4175 54.9013 12.1731C56.2784 11.9601 57.7049 12.4375 58.6842 13.4338C59.2389 13.9981 59.6991 14.903 59.8353 15.3461ZM43.0013 5.06237C45.0039 5.48459 46.5351 7.37842 46.5524 9.54468C44.7808 8.93002 42.8288 9.0258 41.1242 9.82874C40.4166 8.68982 39.4286 7.77139 38.259 7.16329C38.9473 6.01869 40.4501 4.52439 43.0013 5.06237ZM29.702 2.97727C31.6353 3.05664 33.3875 4.45069 33.883 6.42151C31.646 6.74824 29.6977 8.11006 28.571 10.1053C27.6133 9.77742 26.5938 9.66195 25.5893 9.75415C24.8933 8.38517 24.9074 6.682 25.6425 5.33241C26.2215 4.26927 27.2159 3.47557 28.3461 3.14407C28.6036 3.06858 29.515 2.96981 29.702 2.97727ZM17.5908 6.53907C18.71 4.90632 20.7973 4.16484 22.6947 4.8183C21.9937 6.6817 22.0319 8.78053 22.7907 10.6132C22.5224 10.7612 22.2634 10.9286 22.0131 11.1112C20.6051 10.228 18.9314 9.85172 17.2916 10.0558C17.1387 9.96242 16.9823 9.87559 16.8233 9.79383C16.6366 7.86001 17.4032 6.81269 17.5908 6.53907ZM77.0045 91.1907C74.3622 92.1971 71.532 92.6718 68.7313 92.8798C62.5431 93.3396 56.2671 92.4961 50.2501 91.0245C44.1125 89.5233 38.1246 87.3036 32.4559 84.4493C27.0095 81.7068 21.7639 78.3542 17.2506 74.1583C15.0869 72.1469 13.0705 69.9344 11.4489 67.4304C9.82521 64.9234 8.59787 62.1231 8.58429 59.0623C8.58053 58.2405 8.58631 26.6865 8.58631 26.6865C10.9621 30.6132 14.2371 33.9309 17.7249 36.8059C21.3532 39.7966 25.313 42.348 29.4338 44.5489C31.8246 45.826 34.2761 46.9724 36.7678 48.0224C36.7678 48.0224 37.4563 48.3058 37.7465 48.4231C43.8474 50.8883 50.2191 52.71 56.7102 53.6481C63.1091 54.5728 69.8931 54.7748 76.1633 52.9338C79.1941 52.044 82.1954 50.5956 84.4035 48.2199V82.6244C84.4035 84.0139 84.0488 85.3922 83.3077 86.552C83.3025 86.5601 83.2973 86.5684 83.2921 86.5765C82.3804 87.9911 79.4256 90.2686 77.0045 91.1907Z" fill="white"/>
</svg>
