<svg width="87" height="87" viewBox="0 0 87 87" fill="none" xmlns="http://www.w3.org/2000/svg">
<path d="M86.6022 26.7997C82.4249 14.0759 72.1875 4.0378 59.37 0.0975397C58.2568 -0.270513 56.9659 0.441919 56.6845 1.58082L50.3024 25.3665C50.1197 26.0479 50.5238 26.7484 51.2053 26.9313C51.8858 27.1143 52.5869 26.7101 52.7701 26.0287L57.2632 9.28286C66.7256 12.6592 74.2907 20.0836 77.8442 29.4878L65.5176 34.0127C64.0183 31.4202 60.5563 30.2481 57.7842 31.418C55.0076 32.5262 53.4454 35.4294 53.9041 38.2758L49.0012 40.0753L51.223 31.7951C51.4057 31.1136 51.0016 30.4131 50.3201 30.2302C49.6389 30.0474 48.9383 30.4514 48.7553 31.1329L46.3208 40.2061C45.8308 41.8079 47.5671 43.3861 49.1107 42.7563C60.0292 38.7487 74.3669 33.4856 85.3136 29.4672C86.398 29.0692 86.9638 27.8974 86.6022 26.7997ZM57.9285 6.80493L59.0376 2.67102C70.7688 6.43347 80.0721 15.5617 84.0456 27.2113L80.245 28.6064C76.4062 18.4278 68.1929 10.4027 57.9285 6.80493ZM58.7317 33.7903C60.2175 33.1676 62.0573 33.6592 63.0448 34.9202L56.3784 37.3673C56.3415 35.8459 57.2433 34.3844 58.7317 33.7903Z" fill="white"/>
<path d="M82.2849 35.8366C82.1449 35.2453 81.7573 34.741 81.2217 34.453C80.6855 34.1646 80.0501 34.1195 79.4788 34.3295L64.0349 39.999L56.2109 42.8707C56.2077 42.8719 56.2046 42.8734 56.2014 42.8748L49.9918 45.1543C49.3296 45.3975 48.9899 46.1314 49.2329 46.7937C49.4761 47.4557 50.2095 47.7955 50.8724 47.5527L56.0023 45.6695C56.6669 46.7673 57.6489 47.6349 58.8488 48.1622C59.6612 48.5192 60.5208 48.698 61.3821 48.698C62.1555 48.698 62.9301 48.5536 63.6721 48.2642C66.4696 47.1771 68.0593 44.27 67.6083 41.4087L73.4862 39.2508C73.8834 41.2826 74.0878 43.3591 74.0878 45.4441C74.0878 63.1936 59.6476 77.6339 41.8981 77.6339C24.1486 77.6339 9.70833 63.1936 9.70833 45.4441C9.70833 27.6947 24.1486 13.2544 41.8981 13.2544C43.9858 13.2544 46.0659 13.4591 48.1005 13.8575L38.8317 48.3981C38.6246 49.169 38.8622 49.9826 39.4511 50.5213C39.8514 50.8869 40.363 51.0799 40.8852 51.0797C41.1318 51.0797 41.3808 51.0366 41.6215 50.9484L45.2756 49.607C45.9378 49.3638 46.2776 48.6299 46.0345 47.9676C45.7913 47.3055 45.0576 46.9663 44.3951 47.2086L41.5118 48.2671L52.4531 7.49416C52.7814 6.36105 52.0111 5.09407 50.8546 4.86227C47.3957 4.09567 43.8257 3.77735 40.2426 3.91497C33.6156 4.17078 27.0843 6.02535 21.3552 9.27771C20.7416 9.626 20.5266 10.4057 20.8749 11.0192C21.2232 11.6327 22.0029 11.8476 22.6164 11.4995C28.0687 8.40433 34.032 6.71156 40.3412 6.46801C43.5547 6.34453 46.7594 6.61175 49.8699 7.26338L48.7642 11.3838C46.5129 10.9311 44.2094 10.6997 41.8979 10.6997C22.7397 10.6997 7.15342 26.286 7.15342 45.4441C7.15342 64.6023 22.7397 80.1886 41.8979 80.1886C61.0561 80.1886 76.6424 64.6023 76.6424 45.4441C76.6424 43.0575 76.3969 40.6797 75.9146 38.3593L79.9066 36.8938C80.4208 39.1934 80.7274 41.5608 80.8194 43.9384C81.2213 54.3478 77.5452 64.2908 70.4681 71.9361C63.3909 79.5814 53.7604 84.0131 43.3509 84.4154C21.8614 85.2421 3.7023 68.4366 2.87235 46.9467C2.3907 34.4722 7.97894 22.4225 17.8212 14.7137C18.3766 14.2787 18.4742 13.4758 18.039 12.9204C17.6038 12.3647 16.8008 12.2676 16.2457 12.7024C11.173 16.6757 7.03488 21.846 4.27882 27.6545C1.4308 33.6571 0.0617983 40.3623 0.319827 47.0453C0.748172 58.1375 5.47019 68.399 13.6162 75.9392C21.3597 83.1068 31.3141 87.0002 41.8069 86.9999C42.3526 86.9999 42.9012 86.9893 43.4496 86.968C54.5411 86.5397 64.8023 81.8177 72.3431 73.6718C79.884 65.5258 83.8009 54.9313 83.3726 43.8399C83.268 41.1358 82.902 38.4431 82.2849 35.8366ZM62.7458 45.8836C62.7453 45.8837 62.7446 45.8839 62.7441 45.8842C61.8114 46.2477 60.7933 46.2262 59.8768 45.8234C59.3236 45.5804 58.8479 45.2161 58.4782 44.7607L65.1311 42.3183C65.1586 43.844 64.2428 45.3023 62.7458 45.8836Z" fill="white"/>
<path d="M35.7669 28.4127C38.866 28.4127 41.3873 25.8914 41.3873 22.7923C41.3873 19.6932 38.866 17.1719 35.7669 17.1719C32.6678 17.1719 30.1465 19.6932 30.1465 22.7923C30.1465 25.8914 32.6678 28.4127 35.7669 28.4127ZM35.7669 19.7266C37.4573 19.7266 38.8326 21.1019 38.8326 22.7923C38.8326 24.4827 37.4573 25.858 35.7669 25.858C34.0765 25.858 32.7012 24.4827 32.7012 22.7923C32.7012 21.1019 34.0767 19.7266 35.7669 19.7266Z" fill="white"/>
<path d="M41.8978 74.9091C44.9968 74.9091 47.5182 72.3877 47.5182 69.2886C47.5182 66.1896 44.9968 63.6682 41.8978 63.6682C38.7987 63.6682 36.2773 66.1896 36.2773 69.2886C36.2773 72.3877 38.7987 74.9091 41.8978 74.9091ZM41.8978 66.223C43.5882 66.223 44.9635 67.5983 44.9635 69.2886C44.9635 70.979 43.5882 72.3543 41.8978 72.3543C40.2074 72.3543 38.8321 70.979 38.8321 69.2886C38.8321 67.5983 40.2076 66.223 41.8978 66.223Z" fill="white"/>
<path d="M15.3291 39.1426C15.3291 42.2417 17.8505 44.7631 20.9495 44.7631C24.0486 44.7631 26.57 42.2417 26.57 39.1426C26.57 36.0436 24.0486 33.5222 20.9495 33.5222C17.8505 33.5222 15.3291 36.0436 15.3291 39.1426ZM20.9495 36.077C22.6399 36.077 24.0152 37.4523 24.0152 39.1426C24.0152 40.833 22.6399 42.2083 20.9495 42.2083C19.2591 42.2083 17.8838 40.833 17.8838 39.1426C17.8838 37.4523 19.2593 36.077 20.9495 36.077Z" fill="white"/>
<path d="M24.3558 66.9042C27.4549 66.9042 29.9762 64.3828 29.9762 61.2838C29.9762 58.1847 27.4549 55.6633 24.3558 55.6633C21.2567 55.6633 18.7354 58.1847 18.7354 61.2838C18.7354 64.3828 21.2567 66.9042 24.3558 66.9042ZM24.3558 58.2181C26.0462 58.2181 27.4215 59.5934 27.4215 61.2838C27.4215 62.9741 26.0462 64.3494 24.3558 64.3494C22.6654 64.3494 21.2901 62.9741 21.2901 61.2838C21.2901 59.5934 22.6656 58.2181 24.3558 58.2181Z" fill="white"/>
<path d="M62.2406 54.6528C62.9435 54.5926 63.4649 53.9744 63.4048 53.2715C63.3446 52.5684 62.7247 52.0464 62.0235 52.1074C59.1424 52.3531 56.8857 54.8132 56.8857 57.7074C56.8857 60.8064 59.4071 63.3278 62.5062 63.3278C65.6052 63.3278 68.1266 60.8064 68.1266 57.7074C68.2245 56.7814 67.7137 55.715 66.6438 55.8642C65.7192 55.978 65.4143 56.8931 65.5719 57.7074C65.5719 59.3978 64.1966 60.7731 62.5062 60.7731C60.8158 60.7731 59.4405 59.3978 59.4405 57.7074C59.4403 56.1285 60.6703 54.7868 62.2406 54.6528Z" fill="white"/>
<path d="M29.5702 31.1488C29.5092 31.3256 28.0988 35.5131 30.1213 38.3947C32.1338 41.2622 36.5938 41.4568 36.7825 41.4638C36.7984 41.4643 36.8139 41.4647 36.8294 41.4647C37.3723 41.4647 37.8582 41.1205 38.0366 40.6041C38.0975 40.4271 39.5081 36.2395 37.4856 33.3578C35.4728 30.4905 31.0129 30.2958 30.8242 30.2889C30.2608 30.2664 29.7536 30.6176 29.5702 31.1488ZM31.7388 32.9615C32.932 33.1742 34.6057 33.7015 35.3948 34.8254C36.173 35.9342 36.0856 37.6315 35.8683 38.7912C34.675 38.5785 33.0013 38.0512 32.2124 36.9271C31.4343 35.8183 31.5218 34.1211 31.7388 32.9615Z" fill="white"/>
<path d="M49.475 52.5325C46.2211 51.233 42.3816 53.5098 42.2197 53.6075C41.7384 53.8976 41.5032 54.4683 41.6403 55.0133C41.6861 55.1947 42.796 59.472 46.0654 60.7777C46.7845 61.065 47.5317 61.1774 48.2618 61.1774C50.836 61.1774 53.1945 59.7788 53.3205 59.7028C53.8018 59.4126 54.0371 58.842 53.8999 58.297C53.8545 58.1155 52.7444 53.8383 49.475 52.5325ZM47.013 58.4052C45.7551 57.9027 44.8999 56.4341 44.4472 55.3444C45.5626 54.8701 47.2523 54.3959 48.5273 54.905C49.7855 55.4074 50.6406 56.8761 51.0933 57.9658C49.9779 58.4403 48.2887 58.9146 47.013 58.4052Z" fill="white"/>
<path d="M36.3018 51.1194C36.7099 50.7327 36.8173 50.125 36.5666 49.6221C36.4834 49.4547 34.4828 45.5146 31.0096 44.9394C27.5528 44.3672 24.2903 47.4134 24.153 47.5434C23.7449 47.93 23.6374 48.5377 23.888 49.0406C23.9714 49.2081 25.9718 53.1482 29.4452 53.7233C29.7416 53.7724 30.0364 53.7948 30.3281 53.7948C33.4379 53.7947 36.1764 51.2381 36.3018 51.1194ZM26.7007 48.7629C27.6887 48.0605 29.2374 47.236 30.5921 47.4599C31.9286 47.6812 33.0786 48.9325 33.754 49.8999C32.7662 50.6023 31.2165 51.4271 29.8627 51.2028C28.5262 50.9816 27.3764 49.7301 26.7007 48.7629Z" fill="white"/>
<path d="M59.8582 27.1927C60.0518 27.1927 60.247 27.1485 60.4286 27.0579C60.596 26.9743 64.534 24.9702 65.1061 21.4963C65.6753 18.0395 62.6257 14.7793 62.4955 14.6422C62.1087 14.2347 61.5009 14.1277 60.9981 14.3788C60.8307 14.4624 56.8928 16.4665 56.3207 19.9404C55.7515 23.3972 58.801 26.6574 58.9312 26.7945C59.1783 27.055 59.5157 27.1927 59.8582 27.1927ZM58.8416 20.3555C59.0616 19.0188 60.3119 17.8679 61.2785 17.1914C61.982 18.1783 62.8084 19.7263 62.5855 21.0814C62.3658 22.4163 61.1182 23.5663 60.152 24.2431C59.499 23.3331 58.6067 21.7822 58.8416 20.3555Z" fill="white"/>
<path d="M13.7959 51.15C13.7959 53.2629 15.5151 54.9821 17.628 54.9821C19.7409 54.9821 21.4601 53.2629 21.4601 51.15C21.4601 49.037 19.7409 47.3179 17.628 47.3179C15.5151 47.3179 13.7959 49.037 13.7959 51.15ZM17.628 49.8726C18.3324 49.8726 18.9054 50.4456 18.9054 51.15C18.9054 51.8544 18.3324 52.4274 17.628 52.4274C16.9236 52.4274 16.3506 51.8544 16.3506 51.15C16.3506 50.4456 16.9238 49.8726 17.628 49.8726Z" fill="white"/>
<path d="M24.4405 30.9674C26.5535 30.9674 28.2726 29.2484 28.2726 27.1353C28.2726 25.0222 26.5535 23.3032 24.4405 23.3032C22.3276 23.3032 20.6084 25.0222 20.6084 27.1353C20.6084 29.2484 22.3276 30.9674 24.4405 30.9674ZM24.4405 25.858C25.1449 25.858 25.7179 26.4309 25.7179 27.1353C25.7179 27.8398 25.1449 28.4127 24.4405 28.4127C23.7361 28.4127 23.1631 27.8398 23.1631 27.1353C23.1631 26.4309 23.7363 25.858 24.4405 25.858Z" fill="white"/>
<path d="M73.4064 26.1136C73.4064 24.0005 71.6872 22.2815 69.5743 22.2815C67.4614 22.2815 65.7422 24.0005 65.7422 26.1136C65.7422 28.2267 67.4614 29.9457 69.5743 29.9457C71.6872 29.9457 73.4064 28.2267 73.4064 26.1136ZM68.2969 26.1136C68.2969 25.4092 68.8699 24.8362 69.5743 24.8362C70.2787 24.8362 70.8517 25.4092 70.8517 26.1136C70.8517 26.818 70.2787 27.391 69.5743 27.391C68.8699 27.391 68.2969 26.818 68.2969 26.1136Z" fill="white"/>
<path d="M53.9054 63.6682C51.7924 63.6682 50.0732 65.3874 50.0732 67.5003C50.0732 69.6133 51.7924 71.3324 53.9054 71.3324C56.0183 71.3324 57.7375 69.6133 57.7375 67.5003C57.7375 65.3874 56.0185 63.6682 53.9054 63.6682ZM53.9054 68.7777C53.2009 68.7777 52.628 68.2048 52.628 67.5003C52.628 66.7959 53.2009 66.223 53.9054 66.223C54.6098 66.223 55.1827 66.7959 55.1827 67.5003C55.1827 68.2048 54.6098 68.7777 53.9054 68.7777Z" fill="white"/>
<path d="M35.6817 62.987C37.7947 62.987 39.5138 61.2678 39.5138 59.1549C39.5138 57.0419 37.7947 55.3228 35.6817 55.3228C33.5688 55.3228 31.8496 57.0419 31.8496 59.1549C31.8496 61.2678 33.5688 62.987 35.6817 62.987ZM35.6817 57.8775C36.3861 57.8775 36.9591 58.4504 36.9591 59.1549C36.9591 59.8593 36.3861 60.4322 35.6817 60.4322C34.9773 60.4322 34.4043 59.8593 34.4043 59.1549C34.4043 58.4504 34.9775 57.8775 35.6817 57.8775Z" fill="white"/>
</svg>
