<svg width="87" height="87" viewBox="0 0 87 87" fill="none" xmlns="http://www.w3.org/2000/svg">
<g clip-path="url(#clip0)">
<path d="M86.4953 0.490229C86.031 0.0321205 85.3447 -0.120809 84.7308 0.0990696L14.1534 25.2639C11.7014 23.7646 8.59135 23.4135 5.73888 24.5946C1.00401 26.556 -1.25271 32.0039 0.708521 36.7391C5.33361 47.9043 12.0114 57.8986 20.5569 66.4441C29.1024 74.9896 39.0965 81.6675 50.2619 86.2925C51.4214 86.7727 52.6233 87 53.8066 87C57.4557 86.9998 60.9253 84.8376 62.4062 81.2619C63.4026 78.8562 63.3085 76.2669 62.3554 74.0437L86.9092 2.24943C87.1202 1.63227 86.9595 0.948507 86.4953 0.490229ZM24.8398 25.0616L32.3197 22.3948C33.1979 23.3304 33.6259 24.6184 33.4544 25.921C33.3032 27.068 32.7146 28.0877 31.7969 28.792C30.8791 29.4963 29.7427 29.8007 28.5949 29.65C27.448 29.4989 26.4285 28.9105 25.7242 27.9925C25.0753 27.1468 24.7665 26.1151 24.8398 25.0616ZM59.2664 79.9612C58.0222 82.965 54.5657 84.3966 51.5625 83.1521C29.8057 74.1403 12.8606 57.1951 3.8485 35.4383C3.24579 33.9833 3.24579 32.3808 3.8485 30.9256C4.45121 29.4705 5.58442 28.3373 7.03946 27.7346C8.49449 27.1319 10.0972 27.1319 11.5522 27.7346C13.0073 28.3373 14.1405 29.4705 14.7432 30.9256C18.6006 40.2384 24.1706 48.5745 31.2985 55.7023C38.4263 62.8302 46.7623 68.4001 56.0752 72.2576C59.0791 73.5016 60.5107 76.9576 59.2664 79.9612ZM74.3627 28.4328C74.2089 28.4291 74.055 28.4202 73.9014 28.4002C72.7546 28.2491 71.735 27.6605 71.0309 26.7428C70.3266 25.825 70.0219 24.6877 70.1728 23.5409C70.4846 21.1732 72.6638 19.5009 75.0324 19.8122C75.763 19.9084 76.449 20.1918 77.034 20.6229L74.3627 28.4328ZM78.1635 17.3189C77.3356 16.8681 76.4261 16.5679 75.4759 16.4428C71.2497 15.885 67.3597 18.8717 66.8034 23.0974C66.5339 25.1443 67.0777 27.1737 68.3346 28.8117C69.5452 30.3895 71.2785 31.4202 73.2336 31.7346L69.8562 41.6102L65.9721 38.6298C65.2277 38.0589 64.1608 38.1989 63.5897 38.9435C63.0184 39.6881 63.1589 40.7547 63.9034 41.3259L68.696 45.0034L59.9121 70.6879C59.1753 70.0473 58.3269 69.5113 57.3765 69.1176C39.3682 61.6582 25.3429 47.6329 17.8838 29.625C17.6245 28.9986 17.3024 28.4172 16.9308 27.8816L21.4811 26.2592C21.64 27.6301 22.1662 28.9378 23.0282 30.0612C24.285 31.6992 26.1047 32.7497 28.1515 33.019C28.4944 33.0642 28.8363 33.0866 29.1765 33.0866C30.8669 33.0866 32.5022 32.5344 33.8658 31.4882C35.504 30.2311 36.5543 28.4117 36.824 26.3645C37.0658 24.5268 36.6369 22.7066 35.674 21.1987L56.7964 13.6675L57.5969 15.6002C57.8681 16.2545 58.5007 16.6496 59.1675 16.6496C59.3841 16.6496 59.6043 16.6078 59.8171 16.5198C60.684 16.1607 61.0957 15.1665 60.7367 14.2996L60.0016 12.5248L82.5534 4.48373L78.1635 17.3189Z" fill="white"/>
<path d="M18.3515 45.586C18.3464 45.578 18.3323 45.5564 18.3268 45.5486C17.8065 44.7682 16.7535 44.5586 15.9728 45.0784C15.1933 45.5974 14.9819 46.6507 15.4978 47.4315C15.8232 47.9314 16.3677 48.2041 16.9238 48.2041C17.2385 48.2041 17.5568 48.1168 17.8409 47.9341C18.6303 47.4266 18.8589 46.3753 18.3515 45.586Z" fill="white"/>
<path d="M15.7676 41.3645C14.1117 38.4612 12.6232 35.4227 11.3436 32.3337C10.9845 31.4664 9.98996 31.0552 9.12353 31.4142C8.25642 31.7733 7.84487 32.7673 8.20408 33.6343C9.53797 36.8544 11.0897 40.0218 12.8158 43.0481C13.1293 43.5976 13.7029 43.9058 14.2932 43.9058C14.5787 43.9058 14.8681 43.8338 15.1335 43.6824C15.9486 43.2173 16.2327 42.1796 15.7676 41.3645Z" fill="white"/>
<path d="M53.1737 21.7476C52.837 21.7031 52.4949 21.6807 52.1571 21.6807C48.297 21.6807 45.0056 24.5702 44.5013 28.4019C43.945 32.6275 46.93 36.518 51.1556 37.0744C51.4924 37.1189 51.8344 37.1413 52.1722 37.1413C56.0322 37.1413 59.3235 34.2518 59.828 30.4197C60.3842 26.1943 57.3992 22.3039 53.1737 21.7476ZM56.4588 29.9762C56.1761 32.1235 54.3333 33.7427 52.1722 33.7427C51.9822 33.7427 51.7894 33.7301 51.5992 33.705C49.2314 33.3932 47.559 31.2133 47.8707 28.8454C48.1534 26.6983 49.996 25.0793 52.1571 25.0793C52.3471 25.0793 52.5399 25.0918 52.7301 25.117C55.0978 25.429 56.7705 27.6087 56.4588 29.9762Z" fill="white"/>
<path d="M52.7322 42.8838C52.3952 42.8393 52.0533 42.8169 51.7155 42.8169C47.8554 42.8169 44.564 45.7064 44.0597 49.5383C43.79 51.5854 44.3338 53.6146 45.5907 55.2528C46.8474 56.8908 48.667 57.9413 50.714 58.2109C51.0506 58.2553 51.3925 58.2775 51.7301 58.2775C55.5902 58.2775 58.8818 55.388 59.3863 51.556C59.9428 47.3307 56.9576 43.4405 52.7322 42.8838ZM56.0173 51.1126C55.7345 53.2599 53.8915 54.8791 51.7305 54.8791C51.5407 54.8791 51.3478 54.8664 51.1578 54.8414C50.0109 54.6902 48.9913 54.1016 48.287 53.1838C47.5827 52.2661 47.278 51.1289 47.4291 49.9818C47.7118 47.8347 49.5546 46.2155 51.7155 46.2155C51.9055 46.2155 52.0984 46.2281 52.2885 46.2532C54.656 46.565 56.3287 48.7449 56.0173 51.1126Z" fill="white"/>
<path d="M41.5249 35.8442L36.3021 35.1565C35.3722 35.033 34.5181 35.6889 34.3956 36.6192C34.2729 37.5497 34.928 38.4032 35.8583 38.5258L41.081 39.2134C41.1563 39.2235 41.2311 39.2282 41.305 39.2282C42.1446 39.2282 42.8749 38.6058 42.9874 37.7507C43.1102 36.8204 42.4553 35.9667 41.5249 35.8442Z" fill="white"/>
<path d="M38.8764 48.384L38.4152 44.8795C38.2927 43.949 37.4393 43.2938 36.5088 43.4167C35.5783 43.5392 34.9235 44.3925 35.046 45.323L35.5073 48.8275C35.6198 49.6827 36.35 50.3051 37.1897 50.3051C37.2636 50.3051 37.3384 50.3004 37.4135 50.2903C38.344 50.1678 38.9989 49.3145 38.8764 48.384Z" fill="white"/>
</g>
<defs>
<clipPath id="clip0">
<rect width="87" height="87" fill="white"/>
</clipPath>
</defs>
</svg>
