<svg width="101" height="101" viewBox="0 0 101 101" fill="none" xmlns="http://www.w3.org/2000/svg">
<path d="M37.875 72.5938H41.0312V75.75H37.875V72.5938Z" fill="white"/>
<path d="M44.1875 69.4375H47.3438V72.5938H44.1875V69.4375Z" fill="white"/>
<path d="M63.125 45.7656H66.2812V48.9219H63.125V45.7656Z" fill="white"/>
<path d="M58.3906 52.0781H61.5469V55.2344H58.3906V52.0781Z" fill="white"/>
<path d="M63.125 56.8125H66.2812V59.9688H63.125V56.8125Z" fill="white"/>
<path d="M61.5469 3.15625H55.2344C54.8158 3.15625 54.4144 3.32252 54.1185 3.61847C53.8225 3.91443 53.6562 4.31583 53.6562 4.73438V22.0938H23.6719C23.2533 22.0938 22.8519 22.26 22.556 22.556C22.26 22.8519 22.0938 23.2533 22.0938 23.6719V33.1406C22.0938 33.5592 22.26 33.9606 22.556 34.2565C22.8519 34.5525 23.2533 34.7188 23.6719 34.7188H26.9859L33.1564 96.4234C33.1957 96.8141 33.3791 97.176 33.6709 97.4387C33.9627 97.7013 34.3419 97.8457 34.7345 97.8438H66.2812C66.6738 97.8457 67.0531 97.7013 67.3449 97.4387C67.6367 97.176 67.8201 96.8141 67.8594 96.4234L74.0219 34.7188H77.3281C77.7467 34.7188 78.1481 34.5525 78.444 34.2565C78.74 33.9606 78.9062 33.5592 78.9062 33.1406V23.6719C78.9062 23.2533 78.74 22.8519 78.444 22.556C78.1481 22.26 77.7467 22.0938 77.3281 22.0938H63.125V4.73438C63.125 4.31583 62.9587 3.91443 62.6628 3.61847C62.3668 3.32252 61.9654 3.15625 61.5469 3.15625ZM56.8125 6.3125H59.9688V22.0938H56.8125V6.3125ZM64.8609 94.6875H36.147L31.2926 46.1428C33.9371 46.9503 36.6881 47.3552 39.4531 47.3438C43.5276 47.4815 47.5679 46.557 51.177 44.6609C54.3657 42.9747 57.9423 42.1582 61.5469 42.2937C64.4177 42.1906 67.2784 42.6883 69.9457 43.7551L64.8609 94.6875ZM70.2786 40.5042C67.4767 39.5163 64.5167 39.053 61.5469 39.1375C57.4724 38.9997 53.4321 39.9243 49.823 41.8203C46.6343 43.5066 43.0577 44.3231 39.4531 44.1875C36.5512 44.2025 33.6701 43.6963 30.947 42.693L30.1501 34.7188H70.8578L70.2786 40.5042ZM75.75 25.25V31.5625H25.25V25.25H75.75Z" fill="white"/>
<path d="M44.1874 64.703C44.8151 64.7251 45.4405 64.6177 46.0249 64.3875C46.6093 64.1574 47.14 63.8095 47.5841 63.3654C48.0282 62.9213 48.3762 62.3905 48.6063 61.8062C48.8364 61.2218 48.9438 60.5963 48.9218 59.9686V56.8124C48.9438 56.1847 48.8364 55.5592 48.6063 54.9749C48.3762 54.3905 48.0282 53.8597 47.5841 53.4156C47.14 52.9715 46.6093 52.6236 46.0249 52.3935C45.4405 52.1634 44.8151 52.056 44.1874 52.078H41.0311C40.4035 52.056 39.778 52.1634 39.1936 52.3935C38.6092 52.6236 38.0785 52.9715 37.6344 53.4156C37.1903 53.8597 36.8423 54.3905 36.6122 54.9749C36.3821 55.5592 36.2747 56.1847 36.2968 56.8124V59.9686C36.2747 60.5963 36.3821 61.2218 36.6122 61.8062C36.8423 62.3905 37.1903 62.9213 37.6344 63.3654C38.0785 63.8095 38.6092 64.1574 39.1936 64.3875C39.778 64.6177 40.4035 64.7251 41.0311 64.703H44.1874ZM39.453 59.9686V56.8124C39.4307 56.5997 39.4562 56.3846 39.5276 56.183C39.599 55.9814 39.7146 55.7983 39.8658 55.647C40.017 55.4958 40.2002 55.3802 40.4018 55.3088C40.6034 55.2374 40.8184 55.2119 41.0311 55.2343H44.1874C44.4001 55.2119 44.6151 55.2374 44.8168 55.3088C45.0184 55.3802 45.2015 55.4958 45.3527 55.647C45.504 55.7983 45.6195 55.9814 45.6909 56.183C45.7624 56.3846 45.7878 56.5997 45.7655 56.8124V59.9686C45.7878 60.1814 45.7624 60.3964 45.6909 60.598C45.6195 60.7996 45.504 60.9827 45.3527 61.134C45.2015 61.2852 45.0184 61.4008 44.8168 61.4722C44.6151 61.5436 44.4001 61.5691 44.1874 61.5468H41.0311C40.8184 61.5691 40.6034 61.5436 40.4018 61.4722C40.2002 61.4008 40.017 61.2852 39.8658 61.134C39.7146 60.9827 39.599 60.7996 39.5276 60.598C39.4562 60.3964 39.4307 60.1814 39.453 59.9686Z" fill="white"/>
<path d="M55.2343 64.703C54.6066 64.681 53.9811 64.7884 53.3967 65.0185C52.8124 65.2486 52.2816 65.5965 51.8375 66.0406C51.3934 66.4847 51.0455 67.0155 50.8154 67.5999C50.5852 68.1842 50.4778 68.8097 50.4999 69.4374V72.5936C50.4778 73.2213 50.5852 73.8468 50.8154 74.4312C51.0455 75.0155 51.3934 75.5463 51.8375 75.9904C52.2816 76.4345 52.8124 76.7824 53.3967 77.0126C53.9811 77.2427 54.6066 77.3501 55.2343 77.328H58.3905C59.0182 77.3501 59.6437 77.2427 60.228 77.0126C60.8124 76.7824 61.3432 76.4345 61.7873 75.9904C62.2314 75.5463 62.5793 75.0155 62.8094 74.4312C63.0395 73.8468 63.1469 73.2213 63.1249 72.5936V69.4374C63.1469 68.8097 63.0395 68.1842 62.8094 67.5999C62.5793 67.0155 62.2314 66.4847 61.7873 66.0406C61.3432 65.5965 60.8124 65.2486 60.228 65.0185C59.6437 64.7884 59.0182 64.681 58.3905 64.703H55.2343ZM59.9686 69.4374V72.5936C59.991 72.8064 59.9655 73.0214 59.8941 73.223C59.8226 73.4246 59.7071 73.6077 59.5559 73.759C59.4046 73.9102 59.2215 74.0258 59.0199 74.0972C58.8183 74.1686 58.6032 74.1941 58.3905 74.1718H55.2343C55.0215 74.1941 54.8065 74.1686 54.6049 74.0972C54.4033 74.0258 54.2202 73.9102 54.0689 73.759C53.9177 73.6077 53.8021 73.4246 53.7307 73.223C53.6593 73.0214 53.6338 72.8064 53.6561 72.5936V69.4374C53.6338 69.2247 53.6593 69.0096 53.7307 68.808C53.8021 68.6064 53.9177 68.4233 54.0689 68.272C54.2202 68.1208 54.4033 68.0053 54.6049 67.9338C54.8065 67.8624 55.0215 67.8369 55.2343 67.8593H58.3905C58.6032 67.8369 58.8183 67.8624 59.0199 67.9338C59.2215 68.0053 59.4046 68.1208 59.5559 68.272C59.7071 68.4233 59.8226 68.6064 59.8941 68.808C59.9655 69.0096 59.991 69.2247 59.9686 69.4374Z" fill="white"/>
<path d="M47.3436 78.9061H44.1874C43.5597 78.8841 42.9342 78.9915 42.3499 79.2216C41.7655 79.4517 41.2347 79.7997 40.7906 80.2438C40.3465 80.6879 39.9986 81.2186 39.7685 81.803C39.5384 82.3874 39.431 83.0129 39.453 83.6405V86.7968C39.431 87.4244 39.5384 88.0499 39.7685 88.6343C39.9986 89.2187 40.3465 89.7494 40.7906 90.1935C41.2347 90.6376 41.7655 90.9856 42.3499 91.2157C42.9342 91.4458 43.5597 91.5532 44.1874 91.5311H47.3436C47.9713 91.5532 48.5968 91.4458 49.1812 91.2157C49.7655 90.9856 50.2963 90.6376 50.7404 90.1935C51.1845 89.7494 51.5324 89.2187 51.7625 88.6343C51.9927 88.0499 52.1001 87.4244 52.078 86.7968V83.6405C52.1001 83.0129 51.9927 82.3874 51.7625 81.803C51.5324 81.2186 51.1845 80.6879 50.7404 80.2438C50.2963 79.7997 49.7655 79.4517 49.1812 79.2216C48.5968 78.9915 47.9713 78.8841 47.3436 78.9061ZM48.9218 86.7968C48.9441 87.0095 48.9186 87.2245 48.8472 87.4261C48.7758 87.6277 48.6602 87.8109 48.509 87.9621C48.3577 88.1134 48.1746 88.2289 47.973 88.3003C47.7714 88.3717 47.5564 88.3972 47.3436 88.3749H44.1874C43.9747 88.3972 43.7596 88.3717 43.558 88.3003C43.3564 88.2289 43.1733 88.1134 43.022 87.9621C42.8708 87.8109 42.7552 87.6277 42.6838 87.4261C42.6124 87.2245 42.5869 87.0095 42.6093 86.7968V83.6405C42.5869 83.4278 42.6124 83.2128 42.6838 83.0112C42.7552 82.8095 42.8708 82.6264 43.022 82.4752C43.1733 82.3239 43.3564 82.2084 43.558 82.137C43.7596 82.0655 43.9747 82.0401 44.1874 82.0624H47.3436C47.5564 82.0401 47.7714 82.0655 47.973 82.137C48.1746 82.2084 48.3577 82.3239 48.509 82.4752C48.6602 82.6264 48.7758 82.8095 48.8472 83.0112C48.9186 83.2128 48.9441 83.4278 48.9218 83.6405V86.7968Z" fill="white"/>
</svg>
