<svg width="94" height="94" viewBox="0 0 94 94" fill="none" xmlns="http://www.w3.org/2000/svg">
<path d="M38.3027 73.2002C37.2887 73.2002 36.4668 74.0221 36.4668 75.0361V75.0888C36.4668 76.1028 37.2887 76.9247 38.3027 76.9247C39.3167 76.9247 40.1387 76.1028 40.1387 75.0888V75.0361C40.1387 74.0221 39.3167 73.2002 38.3027 73.2002Z" fill="white"/>
<path d="M43.1262 47.7156L28.5396 38.2307C27.9314 37.8351 27.1467 37.8353 26.5381 38.2307L11.9514 47.7156C11.4305 48.0543 11.1162 48.6335 11.1162 49.2548C11.1162 49.8761 11.4303 50.4552 11.9514 50.7941L26.5381 60.2789C26.8423 60.4768 27.1906 60.5756 27.5389 60.5756C27.8871 60.5756 28.2354 60.4766 28.5396 60.2789L43.1262 50.7941C43.647 50.4553 43.9613 49.8761 43.9613 49.2548C43.9613 48.6335 43.6472 48.0543 43.1262 47.7156ZM27.5389 56.5496L16.3202 49.2548L27.5389 41.9599L38.7575 49.2546L27.5389 56.5496Z" fill="white"/>
<path d="M85.7844 11.2148C80.6052 7.06102 73.7426 4.77344 66.4609 4.77344C59.1792 4.77344 52.3167 7.06102 47.1373 11.2148C41.8395 15.4637 38.9219 21.1489 38.9219 27.2233C38.9219 27.764 38.9483 28.3037 38.9955 28.8417C35.5052 27.5348 31.6249 26.8047 27.5391 26.8047C12.354 26.8047 0 36.8757 0 49.2545V49.2547V66.7767C0 72.8511 2.91767 78.5363 8.21545 82.7854C13.3948 86.939 20.2574 89.2266 27.5391 89.2266C34.8208 89.2266 41.6833 86.939 46.8625 82.7852C52.1605 78.5361 55.0781 72.8509 55.0781 66.7765V65.194C58.6347 66.507 62.517 67.1951 66.4609 67.1951C73.7426 67.1951 80.6052 64.9076 85.7844 60.7537C91.0823 56.505 94 50.8197 94 44.7453V27.2233C94 21.1489 91.0823 15.4637 85.7844 11.2148ZM51.4062 66.7765C51.4062 73.4944 46.8983 79.3984 40.1385 82.7178V80.3594C40.1385 79.3454 39.3166 78.5234 38.3026 78.5234C37.2886 78.5234 36.4667 79.3454 36.4667 80.3594V84.1906C33.7074 85.0695 30.6941 85.5547 27.5391 85.5547C14.3787 85.5547 3.67188 77.1309 3.67188 66.7765V60.4453C8.43448 67.1696 17.3492 71.7047 27.5391 71.7047C37.7289 71.7047 46.6436 67.1696 51.4062 60.4453V66.7765ZM44.5509 62.3872C40.0113 66.0278 33.9698 68.0327 27.5391 68.0327C21.1083 68.0327 15.0668 66.0277 10.5273 62.3872C6.10651 58.8416 3.67188 54.1778 3.67188 49.2547C3.67188 44.3316 6.10651 39.6678 10.5273 36.1223C15.0668 32.4816 21.1083 30.4766 27.5391 30.4766C33.9698 30.4766 40.0113 32.4816 44.5509 36.1223C48.9716 39.6678 51.4062 44.3316 51.4062 49.2547C51.4062 54.1778 48.9716 58.8416 44.5509 62.3872ZM90.3281 44.7453C90.3281 51.4632 85.8202 57.3672 79.0604 60.6865V58.3283C79.0604 57.3143 78.2385 56.4923 77.2245 56.4923C76.2105 56.4923 75.3885 57.3143 75.3885 58.3283V62.1593C72.6293 63.0382 69.616 63.5234 66.4609 63.5234C62.4694 63.5234 58.56 62.7356 55.0781 61.2421V49.2545V49.2543C55.0781 48.714 55.0532 48.1783 55.0069 47.6472C58.5809 48.9777 62.4792 49.6731 66.4609 49.6731C73.7426 49.6731 80.6052 47.3855 85.7844 43.2317C87.5795 41.792 89.1003 40.187 90.3281 38.4581V44.7453ZM66.4609 46.0014C62.0764 46.0014 57.8183 45.0618 54.0944 43.2782C52.3584 38.1113 48.4579 33.6766 42.9953 30.6624C42.7285 29.5329 42.5938 28.3794 42.5938 27.2233C42.5938 16.8691 53.3006 8.44531 66.4609 8.44531C79.6213 8.44531 90.3281 16.8691 90.3281 27.2233C90.3281 37.5776 79.6213 46.0014 66.4609 46.0014Z" fill="white"/>
<path d="M77.2246 51.1689C76.2106 51.1689 75.3887 51.9909 75.3887 53.0049V53.0576C75.3887 54.0716 76.2106 54.8935 77.2246 54.8935C78.2386 54.8935 79.0605 54.0716 79.0605 53.0576V53.0049C79.0605 51.9909 78.2386 51.1689 77.2246 51.1689Z" fill="white"/>
<path d="M82.0478 25.6844L67.4613 16.1996C66.8529 15.8039 66.0682 15.8039 65.4598 16.1996L50.8733 25.6844C50.3524 26.0231 50.0381 26.6022 50.0381 27.2236C50.0381 27.8449 50.3522 28.424 50.8733 28.7629L65.4598 38.2477C65.764 38.4456 66.1123 38.5444 66.4605 38.5444C66.8088 38.5444 67.1571 38.4454 67.4613 38.2477L82.0478 28.7629C82.5687 28.4242 82.883 27.8451 82.883 27.2236C82.883 26.6024 82.5689 26.0231 82.0478 25.6844ZM66.4605 34.5184L55.2419 27.2236L66.4605 19.9287L77.6792 27.2235L66.4605 34.5184Z" fill="white"/>
</svg>
