<svg width="98" height="98" viewBox="0 0 98 98" fill="none" xmlns="http://www.w3.org/2000/svg">
<path d="M39.9326 76.3152C38.8755 76.3152 38.0186 77.1721 38.0186 78.2292V78.2842C38.0186 79.3413 38.8755 80.1982 39.9326 80.1982C40.9898 80.1982 41.8467 79.3413 41.8467 78.2842V78.2292C41.8467 77.1721 40.9898 76.3152 39.9326 76.3152Z" fill="white"/>
<path d="M44.9619 49.7458L29.7547 39.8574C29.1206 39.4449 28.3025 39.4451 27.668 39.8574L12.4606 49.7458C11.9175 50.099 11.5898 50.7029 11.5898 51.3506C11.5898 51.9983 11.9173 52.602 12.4606 52.9553L27.668 62.8438C27.9851 63.0501 28.3482 63.1531 28.7113 63.1531C29.0744 63.1531 29.4375 63.0499 29.7547 62.8438L44.9619 52.9553C45.5049 52.6022 45.8326 51.9983 45.8326 51.3506C45.8326 50.7029 45.5051 50.099 44.9619 49.7458ZM28.7113 58.9557L17.0153 51.3506L28.7113 43.7452L40.4074 51.3504L28.7113 58.9557Z" fill="white"/>
<path d="M89.4348 11.6921C84.0352 7.36148 76.8806 4.97656 69.2891 4.97656C61.6975 4.97656 54.5429 7.36148 49.1432 11.6921C43.6199 16.1218 40.5781 22.0489 40.5781 28.3817C40.5781 28.9454 40.6057 29.5081 40.6549 30.069C37.0161 28.7065 32.9707 27.9453 28.7109 27.9453C12.8797 27.9453 0 38.4449 0 51.3505V51.3507V69.6183C0 75.9511 3.04183 81.8782 8.56505 86.3081C13.9648 90.6385 21.1194 93.0234 28.7109 93.0234C36.3025 93.0234 43.4571 90.6385 48.8566 86.308C54.38 81.878 57.4219 75.951 57.4219 69.6181V67.9682C61.1298 69.3371 65.1773 70.0545 69.2891 70.0545C76.8806 70.0545 84.0352 67.6696 89.4348 63.339C94.9582 58.9095 98 52.9822 98 46.6493V28.3817C98 22.0489 94.9582 16.1218 89.4348 11.6921ZM53.5938 69.6181C53.5938 76.6218 48.894 82.7771 41.8466 86.2377V83.7789C41.8466 82.7218 40.9896 81.8648 39.9325 81.8648C38.8754 81.8648 38.0184 82.7218 38.0184 83.7789V87.7732C35.1418 88.6894 32.0003 89.1953 28.7109 89.1953C14.9906 89.1953 3.82812 80.413 3.82812 69.6181V63.0174C8.79339 70.0279 18.0875 74.756 28.7109 74.756C39.3344 74.756 48.6285 70.0279 53.5938 63.0174V69.6181ZM46.4466 65.042C41.7139 68.8375 35.4153 70.9277 28.7109 70.9277C22.0065 70.9277 15.7079 68.8373 10.9752 65.042C6.36636 61.3455 3.82812 56.4832 3.82812 51.3507C3.82812 46.2181 6.36636 41.3558 10.9752 37.6594C15.7079 33.8638 22.0065 31.7734 28.7109 31.7734C35.4153 31.7734 41.7139 33.8638 46.4466 37.6594C51.0555 41.3558 53.5938 46.2181 53.5938 51.3507C53.5938 56.4832 51.0555 61.3455 46.4466 65.042ZM94.1719 46.6493C94.1719 53.6531 89.4721 59.8083 82.4247 63.269V60.8103C82.4247 59.7532 81.5678 58.8963 80.5106 58.8963C79.4535 58.8963 78.5966 59.7532 78.5966 60.8103V64.8044C75.7199 65.7207 72.5784 66.2266 69.2891 66.2266C65.1277 66.2266 61.0519 65.4052 57.4219 63.8481V51.3505V51.3503C57.4219 50.787 57.3958 50.2284 57.3476 49.6747C61.0737 51.0618 65.1378 51.7869 69.2891 51.7869C76.8806 51.7869 84.0352 49.402 89.4348 45.0714C91.3063 43.5704 92.8917 41.8971 94.1719 40.0946V46.6493ZM69.2891 47.9589C64.7179 47.9589 60.2786 46.9793 56.3963 45.1198C54.5864 39.7331 50.52 35.1096 44.8249 31.9671C44.5467 30.7896 44.4062 29.587 44.4062 28.3817C44.4062 17.587 55.5687 8.80469 69.2891 8.80469C83.0094 8.80469 94.1719 17.587 94.1719 28.3817C94.1719 39.1766 83.0094 47.9589 69.2891 47.9589Z" fill="white"/>
<path d="M80.5107 53.3464C79.4536 53.3464 78.5967 54.2034 78.5967 55.2605V55.3154C78.5967 56.3726 79.4536 57.2295 80.5107 57.2295C81.5679 57.2295 82.4248 56.3726 82.4248 55.3154V55.2605C82.4248 54.2034 81.5679 53.3464 80.5107 53.3464Z" fill="white"/>
<path d="M85.5398 26.7771L70.3326 16.8887C69.6983 16.4762 68.8802 16.4762 68.2459 16.8887L53.0387 26.7771C52.4957 27.1303 52.168 27.734 52.168 28.3819C52.168 29.0296 52.4955 29.6333 53.0387 29.9866L68.2459 39.8751C68.5631 40.0814 68.9262 40.1844 69.2893 40.1844C69.6524 40.1844 70.0155 40.0812 70.3326 39.8751L85.5398 29.9866C86.0829 29.6335 86.4105 29.0298 86.4105 28.3819C86.4105 27.7342 86.083 27.1303 85.5398 26.7771ZM69.2893 35.987L57.5932 28.3819L69.2893 20.7766L80.9853 28.3817L69.2893 35.987Z" fill="white"/>
</svg>
