<svg width="96" height="82" viewBox="0 0 96 82" fill="none" xmlns="http://www.w3.org/2000/svg">
<g clip-path="url(#clip0)">
<path d="M18.794 42.6704C16.5664 42.6704 14.3855 43.0747 12.3122 43.8717C11.5832 44.152 11.2093 44.9974 11.4771 45.7603C11.7448 46.5229 12.5525 46.9143 13.2819 46.6339C15.0437 45.9567 16.8982 45.6132 18.7939 45.6132C27.6062 45.6132 34.7756 53.1147 34.7756 62.3352C34.7756 71.5558 27.6062 79.0573 18.7939 79.0573C9.98155 79.0573 2.8125 71.5558 2.8125 62.3352C2.8125 57.6158 4.73306 53.093 8.08162 49.9257C8.6578 49.3809 8.70262 48.4504 8.18193 47.8475C7.66105 47.2449 6.77193 47.1978 6.19574 47.7428C2.25825 51.4666 0 56.7854 0 62.3352C0 73.1786 8.43093 82.0001 18.794 82.0001C29.1572 82.0001 37.5883 73.1784 37.5883 62.3352C37.5883 51.4921 29.1572 42.6704 18.794 42.6704Z" fill="white"/>
<path d="M28.8495 62.3352C28.8495 56.534 24.3389 51.8142 18.7945 51.8142C13.2501 51.8142 8.73926 56.534 8.73926 62.3352C8.73926 68.1364 13.2499 72.8563 18.7943 72.8563C24.3387 72.8563 28.8495 68.1364 28.8495 62.3352ZM18.7943 69.9135C18.514 69.9135 18.2372 69.8968 17.9652 69.8642C17.8932 69.4326 17.857 68.9934 17.857 68.5508C17.857 64.3722 21.106 60.9727 25.0996 60.9727C25.3771 60.9727 25.6538 60.9892 25.9279 61.0218C25.9996 61.4485 26.0369 61.8873 26.0369 62.3352C26.0371 66.514 22.7881 69.9135 18.7943 69.9135ZM11.5518 62.3352C11.5518 58.1565 14.8008 54.757 18.7943 54.757C21.2633 54.757 23.4477 56.0565 24.7557 58.036C19.3697 58.2263 15.0443 62.8698 15.0443 68.5508C15.0443 68.6402 15.0454 68.7295 15.0477 68.8188C12.9537 67.4888 11.5518 65.0803 11.5518 62.3352Z" fill="white"/>
<path d="M60.1322 51.8142C54.5878 51.8142 50.0771 56.534 50.0771 62.3352C50.0771 68.1364 54.5878 72.8563 60.1322 72.8563C65.6766 72.8563 70.1873 68.1364 70.1873 62.3352C70.1873 56.534 65.6766 51.8142 60.1322 51.8142ZM52.8896 62.3352C52.8896 58.1565 56.1386 54.757 60.1322 54.757C62.6012 54.757 64.7856 56.0565 66.0936 58.036C60.7076 58.2263 56.3822 62.8698 56.3822 68.5508C56.3822 68.6402 56.3833 68.7295 56.3856 68.8188C54.2916 67.4888 52.8896 65.0803 52.8896 62.3352ZM60.1322 69.9135C59.8519 69.9135 59.5751 69.8968 59.3031 69.8642C59.2311 69.4326 59.1949 68.9934 59.1949 68.5508C59.1949 64.3722 62.4439 60.9727 66.4375 60.9727C66.715 60.9727 66.9917 60.9892 67.2658 61.0218C67.3375 61.4485 67.3748 61.8873 67.3748 62.3352C67.3748 66.514 64.1258 69.9135 60.1322 69.9135Z" fill="white"/>
<path d="M18.7943 9.5415C13.2499 9.5415 8.73926 14.2613 8.73926 20.0625C8.73926 25.8637 13.2499 30.5835 18.7943 30.5835C24.3387 30.5835 28.8494 25.8637 28.8494 20.0625C28.8494 14.2613 24.3389 9.5415 18.7943 9.5415ZM11.5518 20.0625C11.5518 15.8838 14.8008 12.4843 18.7943 12.4843C21.2633 12.4843 23.4477 13.7838 24.7557 15.7633C19.3698 15.9536 15.0443 20.5973 15.0443 26.2783C15.0443 26.3675 15.0454 26.4568 15.0477 26.5461C12.9537 25.2163 11.5518 22.8075 11.5518 20.0625ZM18.7943 27.6408C18.514 27.6408 18.2373 27.6241 17.9652 27.5913C17.8932 27.1599 17.857 26.7207 17.857 26.2781C17.857 22.0993 21.106 18.6998 25.0996 18.6998C25.3771 18.6998 25.6538 18.7163 25.9279 18.7489C25.9996 19.1756 26.0369 19.6144 26.0369 20.0623C26.0371 24.2413 22.7881 27.6408 18.7943 27.6408Z" fill="white"/>
<path d="M60.1321 0.397705C57.9044 0.397705 55.7234 0.802043 53.6501 1.59914C52.9211 1.87949 52.5474 2.72505 52.8151 3.48782C53.0829 4.25059 53.8912 4.64158 54.62 4.36143C56.3818 3.684 58.2363 3.34048 60.1319 3.34048C68.9442 3.34048 76.1135 10.842 76.1135 20.0625C76.1135 29.283 68.9441 36.7846 60.1318 36.7846C51.3194 36.7846 44.1502 29.283 44.1502 20.0625C44.1502 15.3431 46.0708 10.8202 49.4193 7.65303C49.9955 7.10822 50.0403 6.17771 49.5196 5.57484C48.9988 4.97216 48.1096 4.92507 47.5334 5.47007C43.5961 9.19367 41.3379 14.5126 41.3379 20.0625C41.3379 30.9059 49.769 39.7273 60.1321 39.7273C70.4952 39.7273 78.9262 30.9057 78.9262 20.0625C78.9262 9.21937 70.4952 0.397705 60.1321 0.397705Z" fill="white"/>
<path d="M70.1873 20.0625C70.1873 14.2613 65.6766 9.5415 60.1322 9.5415C54.5878 9.5415 50.0771 14.2613 50.0771 20.0625C50.0771 25.8637 54.5878 30.5835 60.1322 30.5835C65.6766 30.5835 70.1873 25.8639 70.1873 20.0625ZM60.1322 27.6408C59.8519 27.6408 59.5751 27.6241 59.3031 27.5913C59.2311 27.1599 59.1949 26.7207 59.1949 26.2781C59.1949 22.0993 62.4439 18.6998 66.4375 18.6998C66.715 18.6998 66.9917 18.7163 67.2658 18.7489C67.3375 19.1756 67.3748 19.6144 67.3748 20.0623C67.3748 24.2413 64.1258 27.6408 60.1322 27.6408ZM52.8896 20.0625C52.8896 15.8838 56.1386 12.4843 60.1322 12.4843C62.6012 12.4843 64.7856 13.7838 66.0936 15.7633C60.7076 15.9536 56.3822 20.5973 56.3822 26.2783C56.3822 26.3675 56.3833 26.4568 56.3856 26.5461C54.2916 25.2163 52.8896 22.8075 52.8896 20.0625Z" fill="white"/>
<path d="M94.3024 1.85297C93.1801 0.658005 91.6801 0 90.0788 0C88.4776 0 86.9776 0.658005 85.8552 1.85317C84.7328 3.04833 84.1302 4.62879 84.1582 6.30814L84.7418 36.6505C84.7574 37.4529 85.3837 38.0923 86.1473 38.0923C86.1569 38.0923 86.1667 38.0923 86.1762 38.0919C86.9527 38.0756 87.5695 37.4037 87.554 36.5913L87.413 29.2653H92.6847L91.9941 60.8637H88.0173L87.6777 43.4093C87.6621 42.6069 87.0357 41.9678 86.2722 41.9678C86.2625 41.9678 86.2527 41.9678 86.243 41.9681C85.4665 41.9846 84.8498 42.6567 84.8656 43.469L85.5262 77.4267C85.5745 79.9484 87.5752 81.9999 89.9856 81.9999C92.3894 81.9999 94.3898 79.9541 94.445 77.4396L95.9997 6.30402C96.0276 4.6288 95.4248 3.04813 94.3024 1.85297ZM87.8613 3.91586C88.4506 3.28846 89.2381 2.94278 90.0788 2.94278C90.9196 2.94278 91.7071 3.28846 92.2964 3.91566C92.8857 4.54326 93.2022 5.37332 93.1876 6.24477L92.9031 19.2599H87.2204L86.9703 6.25282C86.9557 5.37312 87.2722 4.54326 87.8613 3.91586ZM87.3563 26.3226L87.277 22.2027H92.8388L92.7488 26.3226H87.3563ZM89.9858 79.0572C89.0952 79.0572 88.3561 78.2993 88.3383 77.3674L88.0745 63.8065H91.9298L91.6334 77.3721C91.613 78.3015 90.8738 79.0572 89.9858 79.0572Z" fill="white"/>
<path d="M60.1319 42.6704C49.7688 42.6704 41.3379 51.4921 41.3379 62.3352C41.3379 73.1784 49.7688 82.0001 60.1319 82.0001C70.4951 82.0001 78.9262 73.1784 78.9262 62.3352C78.9262 51.4921 70.4951 42.6704 60.1319 42.6704ZM60.1319 79.0573C51.3196 79.0573 44.1504 71.5558 44.1504 62.3352C44.1504 53.1147 51.3196 45.6132 60.1319 45.6132C68.9442 45.6132 76.1137 53.1147 76.1137 62.3352C76.1137 71.5558 68.9442 79.0573 60.1319 79.0573Z" fill="white"/>
<path d="M18.794 0.397705C8.43093 0.397705 0 9.21937 0 20.0625C0 30.9057 8.43093 39.7273 18.794 39.7273C29.1572 39.7273 37.5883 30.9057 37.5883 20.0625C37.5883 9.21937 29.1572 0.397705 18.794 0.397705ZM18.794 36.7848C9.98174 36.7848 2.8125 29.283 2.8125 20.0625C2.8125 10.842 9.98174 3.34048 18.794 3.34048C27.6063 3.34048 34.7758 10.842 34.7758 20.0625C34.7758 29.283 27.6063 36.7848 18.794 36.7848Z" fill="white"/>
</g>
<defs>
<clipPath id="clip0">
<rect width="96" height="82" fill="white"/>
</clipPath>
</defs>
</svg>
