<svg width="77" height="77" viewBox="0 0 77 77" fill="none" xmlns="http://www.w3.org/2000/svg">
<path d="M38.5 0C16.555 0 0 7.21875 0 16.8438V60.1562C0 69.7812 16.555 77 38.5 77C60.445 77 77 69.7812 77 60.1562V16.8438C77 7.21875 60.445 0 38.5 0ZM72.1875 60.1562C72.1875 65.8591 58.3516 72.1875 38.5 72.1875C18.6484 72.1875 4.8125 65.8591 4.8125 60.1562V25.2175C11.2613 30.3669 23.6294 33.6875 38.5 33.6875C53.3706 33.6875 65.7387 30.3669 72.1875 25.2175V60.1562ZM38.5 28.875C18.6484 28.875 4.8125 22.5466 4.8125 16.8438C4.8125 11.1409 18.6484 4.8125 38.5 4.8125C58.3516 4.8125 72.1875 11.1409 72.1875 16.8438C72.1875 22.5466 58.3516 28.875 38.5 28.875Z" fill="white"/>
<path d="M38.5 9.625C30.1263 9.625 21.6562 11.8628 21.6562 16.8438C21.6562 21.8247 30.1263 24.0625 38.5 24.0625C46.8738 24.0625 55.3438 21.8247 55.3438 16.8438C55.3438 11.8628 46.8738 9.625 38.5 9.625Z" fill="white"/>
<path d="M14.4375 36.0938H9.625V45.7188H14.4375V36.0938Z" fill="white"/>
<path d="M14.4375 50.5312H9.625V55.3438H14.4375V50.5312Z" fill="white"/>
</svg>
