<svg width="127" height="123" viewBox="0 0 127 123" fill="none" xmlns="http://www.w3.org/2000/svg">
<g clip-path="url(#clip0)">
<path d="M9.42027 44.5769L9.43083 60.0121C9.43451 65.3999 13.9811 69.7652 19.5848 69.7614L35.6388 69.7504C41.2426 69.7466 45.6317 65.3751 45.6281 59.9873L45.6175 44.5521C45.6138 39.1643 41.0672 34.799 35.4635 34.8028L19.5609 34.8137C13.9572 34.8175 9.41659 39.1891 9.42027 44.5769ZM35.6169 37.715C39.5547 37.7123 42.7373 40.7681 42.7399 44.5541L42.7504 59.9893C42.753 63.7753 39.5746 66.8354 35.6368 66.8381L19.5828 66.8491C15.6451 66.8518 12.4625 63.796 12.4599 60.01L12.4493 44.5748C12.4467 40.7888 15.6252 37.7287 19.5629 37.726L35.6169 37.715Z" fill="white"/>
<path d="M17.4523 52.2889C17.456 57.6767 22.0026 62.0421 27.6063 62.0382C33.2101 62.0344 37.7507 57.6628 37.747 52.2751C37.7433 46.8873 33.1967 42.5219 27.593 42.5258C21.9892 42.5296 17.4486 46.9012 17.4523 52.2889ZM20.4814 52.2869C20.3289 50.8308 20.7824 49.52 21.6903 48.3544L21.6956 56.072C20.9375 54.9076 20.4823 53.5974 20.4814 52.2869ZM24.7263 58.5454L24.7178 46.0225C25.172 45.8766 25.6263 45.7307 26.0805 45.5847L26.0897 58.9813C25.6352 58.836 25.1808 58.6907 24.7263 58.5454ZM34.7178 52.1315C34.7189 53.7333 34.2655 55.0441 33.5089 56.064L33.5036 48.3464C34.2617 49.5108 34.7169 50.821 34.7178 52.1315ZM30.473 46.0186L30.4815 58.5415C30.0273 58.6874 29.573 58.8333 29.1188 58.9793L29.1096 45.5827C29.5641 45.728 30.0185 45.8733 30.473 46.0186Z" fill="white"/>
<path d="M9.29507 83.8931L9.30583 99.6195C9.30951 105.007 13.8561 109.373 19.4598 109.369L35.8168 109.358C41.4205 109.354 45.9611 104.982 45.9574 99.5944L45.9467 83.868C45.943 78.4802 41.3964 74.1149 35.7927 74.1187L19.4357 74.1299C13.832 74.1337 9.29139 78.5053 9.29507 83.8931ZM23.6783 76.8937L23.6798 79.0779C23.6804 79.9516 24.2866 80.5337 25.1953 80.533C26.104 80.5324 26.7095 79.9495 26.7089 79.0758L26.7074 76.8916L35.6431 76.8855C39.5809 76.8828 42.7635 79.9386 42.7661 83.7246L40.1914 83.7263C39.2826 83.7269 38.6772 84.3098 38.6778 85.1835C38.6784 86.0572 39.2846 86.6392 40.1933 86.6386L42.768 86.6369L42.7769 99.5966C42.7788 102.363 41.1144 104.694 38.8433 105.715C39.146 105.424 39.2973 105.132 39.297 104.696C39.2967 104.259 39.145 103.968 38.8419 103.677L36.8717 101.785C36.2655 101.203 35.3568 101.203 34.7514 101.786C34.146 102.369 34.1466 103.243 34.7528 103.825L36.723 105.717C37.0261 106.008 37.3291 106.153 37.632 106.153C37.0263 106.299 36.4206 106.445 35.6633 106.445L19.4579 106.456C17.9433 106.458 16.4285 106.022 15.3677 105.149L16.7299 103.837C17.0326 103.546 17.1838 103.109 17.1836 102.818C17.1833 102.381 17.0316 102.09 16.7285 101.799C16.1223 101.217 15.2136 101.217 14.6082 101.8L13.3973 102.966C12.7908 101.947 12.3357 100.782 12.3348 99.4718L12.3295 91.7542L13.5411 91.7534C14.4498 91.7528 15.0553 91.1699 15.0547 90.2962C15.0541 89.4225 14.4479 88.8405 13.5391 88.8411L12.3275 88.8419L12.324 83.7454C12.3214 79.9594 15.4999 76.8993 19.4376 76.8966L23.6783 76.8937Z" fill="white"/>
<path d="M19.1393 83.7409C16.869 85.9266 15.6593 88.6942 15.6614 91.7521C15.6622 92.917 15.8144 94.0818 16.2695 95.1008L14.4533 96.8494C13.8479 97.4323 13.8485 98.306 14.4547 98.8881C15.0609 99.4701 15.9696 99.4695 16.575 98.8866L17.6345 97.8666C18.0892 98.4487 18.5441 99.1765 19.1502 99.6129C21.575 101.941 24.7563 103.104 27.9368 102.956L27.9375 104.121C27.9381 104.995 28.5444 105.577 29.4531 105.576C30.3618 105.575 30.9672 104.993 30.9666 104.119L30.9655 102.517C32.7825 101.933 34.4479 101.059 35.9616 99.747C36.4156 99.3099 36.8697 98.8727 37.1723 98.4357L38.6878 99.8908C39.294 100.473 40.2027 100.472 40.8082 99.8893C41.1109 99.5979 41.262 99.161 41.2618 98.8697C41.2615 98.4329 41.1099 98.1418 40.8068 97.8507L38.8366 95.9591C38.685 95.8136 38.685 95.8136 38.5336 95.8137C38.987 94.5028 39.289 93.1921 39.288 91.7359C39.2861 88.8236 38.0724 85.9121 35.7992 83.7295C33.5259 81.5468 30.6475 80.3838 27.467 80.386C24.2864 80.3882 21.4096 81.5551 19.1393 83.7409ZM33.8317 85.7694C37.3174 89.1162 37.321 94.3583 33.8398 97.7099C30.3586 100.916 24.7548 100.92 21.4207 97.7184C19.7536 96.1177 18.8435 94.0798 18.8419 91.7499C18.8404 89.5657 19.7476 87.3808 21.4125 85.7779C23.0774 84.175 25.1972 83.2999 27.6204 83.2982C29.8922 83.2967 32.1646 84.1688 33.8317 85.7694Z" fill="white"/>
<path d="M13.0812 83.5993L13.083 86.2204C13.0836 87.0941 13.6898 87.6761 14.5985 87.6755C15.3558 87.675 16.1126 87.092 16.112 86.2183L16.1102 83.5972C16.1097 82.7235 15.5034 82.1415 14.5947 82.1421C13.686 82.1427 13.0806 82.7256 13.0812 83.5993Z" fill="white"/>
<path d="M39.591 90.4252L39.5928 93.0463C39.5934 93.92 40.1996 94.502 41.1083 94.5014C42.017 94.5008 42.6224 93.9179 42.6218 93.0442L42.62 90.4231C42.6194 89.5495 42.0132 88.9674 41.1045 88.968C40.1958 88.9686 39.5904 89.5515 39.591 90.4252Z" fill="white"/>
<path d="M28.5263 78.7833C28.5269 79.657 29.1332 80.2391 30.0419 80.2385L32.768 80.2366C33.5253 80.2361 34.2821 79.5075 34.2816 78.7794C34.281 77.9057 33.6748 77.3237 32.766 77.3243L30.0399 77.3262C29.1312 77.3268 28.5258 77.9097 28.5263 78.7833Z" fill="white"/>
<path d="M20.0609 101.796L18.0933 103.691C17.4879 104.274 17.4885 105.147 18.0947 105.729C18.7009 106.311 19.6096 106.311 20.215 105.728L22.1826 103.834C22.4853 103.542 22.6365 103.105 22.6363 102.814C22.636 102.377 22.4843 102.086 22.1812 101.795C21.575 101.213 20.6663 101.214 20.0609 101.796Z" fill="white"/>
<path d="M19.1361 78.0618L17.1685 79.9561C16.5631 80.539 16.5637 81.4127 17.1699 81.9947C17.6246 82.5769 18.6848 82.5762 19.2902 81.9933L21.2578 80.0989C21.5605 79.8075 21.7117 79.3705 21.7115 79.0793C21.7112 78.6425 21.5595 78.3513 21.2564 78.0603C20.6502 77.4783 19.7415 77.4789 19.1361 78.0618Z" fill="white"/>
<path d="M37.765 79.0684L35.7974 80.9627C35.192 81.5456 35.1926 82.4193 35.7988 83.0013C36.405 83.5834 37.3137 83.5827 37.9191 82.9999L39.8867 81.1055C40.1894 80.8141 40.3406 80.3771 40.3404 80.0859C40.3401 79.6491 40.1884 79.3579 39.8853 79.0669C39.2791 78.4849 38.3704 78.4855 37.765 79.0684Z" fill="white"/>
<path d="M48.6459 43.5307L48.6552 57.0729C48.6584 61.8782 52.7504 65.807 57.7483 65.8036L71.8334 65.794C76.8314 65.7905 80.9179 61.8561 80.9146 57.0508L80.9053 43.5086C80.9021 38.7033 76.8101 34.7745 71.8122 34.7779L57.7271 34.7875C52.5777 34.7911 48.6426 38.7254 48.6459 43.5307ZM71.8142 37.6902C75.1462 37.6879 77.8741 40.3071 77.8763 43.5107L77.8856 57.0529C77.8877 60.2564 75.1634 62.8794 71.8314 62.8817L57.7463 62.8913C54.4143 62.8936 51.6864 60.2744 51.6842 57.0708L51.6749 43.5286C51.6728 40.3251 54.3971 37.7021 57.7291 37.6998L71.8142 37.6902Z" fill="white"/>
<path d="M55.6171 50.37C55.6204 55.1753 59.7123 59.1041 64.7102 59.1007C69.7082 59.0973 73.7947 55.1629 73.7914 50.3576C73.7881 45.5523 69.6962 41.6235 64.6983 41.6269C59.7002 41.4847 55.6137 45.4191 55.6171 50.37ZM70.6119 51.8159C70.0078 54.2918 67.5858 56.1864 64.7082 56.1884C61.8306 56.1904 59.5575 54.2989 58.7986 51.824L70.6119 51.8159ZM70.6099 48.9036L58.7966 48.9117C59.4007 46.4358 61.8227 44.5412 64.7003 44.5392C67.5779 44.5372 70.0023 46.283 70.6099 48.9036Z" fill="white"/>
<path d="M84.0853 43.5065L84.0946 57.0487C84.0979 61.854 88.1898 65.7828 93.1878 65.7794L107.273 65.7698C112.271 65.7664 116.357 61.832 116.354 57.0267L116.345 43.4845C116.342 38.6792 112.25 34.7503 107.252 34.7538L93.1665 34.7634C88.1686 34.7668 84.0821 38.7012 84.0853 43.5065ZM107.405 37.666C110.737 37.6637 113.465 40.2829 113.467 43.4864L113.476 57.0286C113.479 60.2322 110.754 62.8551 107.422 62.8574L93.3372 62.867C90.0053 62.8693 87.2773 60.2501 87.2751 57.0466L87.2659 43.5043C87.2637 40.3008 89.988 37.6779 93.32 37.6756L107.405 37.666Z" fill="white"/>
<path d="M91.2089 50.3456C91.2122 55.1509 95.3041 59.0797 100.302 59.0763C105.3 59.0729 109.386 55.1385 109.383 50.3332C109.38 45.5279 105.288 41.5991 100.29 41.6025C95.292 41.4603 91.2055 45.3947 91.2089 50.3456ZM106.204 51.7915C105.448 54.2675 103.178 56.162 100.3 56.164C97.4224 56.166 95.1493 54.2745 94.3904 51.7996L106.204 51.7915ZM106.202 48.8792L94.3884 48.8873C94.9925 46.4114 97.4145 44.5168 100.292 44.5148C103.17 44.3672 105.443 46.2587 106.202 48.8792Z" fill="white"/>
<path d="M51.0928 78.1855C50.9449 83.4278 55.4915 87.7931 61.0953 87.7893C66.699 87.7855 71.0882 83.414 71.0846 78.1719C71.0809 72.7841 66.5344 68.5644 61.0821 68.5681C55.4784 68.5719 51.0892 72.9434 51.0928 78.1855ZM68.0554 78.0283C68.058 81.8143 64.8795 84.7288 61.0932 84.7314C57.1554 84.7341 54.1243 81.6782 54.1218 78.0378C53.9678 74.3976 57.1462 71.3375 61.084 71.3348C65.0218 71.3321 68.0529 74.3879 68.0554 78.0283Z" fill="white"/>
<path d="M56.6963 78.1817C56.6979 80.5115 58.5167 82.4033 61.0913 82.4015C63.5146 82.3999 65.4822 80.5055 65.4806 78.1757C65.479 75.8458 63.5088 73.9542 61.0856 73.9559C58.6623 73.9575 56.6947 75.8519 56.6963 78.1817ZM62.4514 78.0321C62.4519 78.7602 61.8465 79.3431 61.0893 79.3436C60.332 79.3441 59.7258 78.7621 59.7253 78.034C59.5733 77.306 60.1787 76.7232 61.0875 76.7225C61.8447 76.722 62.4509 77.3041 62.4514 78.0321Z" fill="white"/>
<path d="M73.6585 78.0244C73.6622 83.4122 78.2086 87.6319 83.6609 87.6282C89.2647 87.6243 93.6538 83.2529 93.6502 78.0107C93.6466 72.623 89.1001 68.4032 83.6478 68.407C78.1955 68.4107 73.6549 72.7823 73.6585 78.0244ZM90.7726 78.0127C90.7752 81.7987 87.5967 84.7132 83.8104 84.7158C79.8726 84.7185 76.8415 81.6626 76.839 78.0222C76.8364 74.2362 80.0149 71.3218 83.8012 71.3192C87.5875 71.3166 90.7701 74.3723 90.7726 78.0127Z" fill="white"/>
<path d="M79.2627 78.0206C79.2643 80.3504 81.2345 82.2421 83.6578 82.2404C86.081 82.2387 88.0486 80.3444 88.047 78.0146C88.0454 75.6847 86.0752 73.7931 83.652 73.7947C81.2287 73.7964 79.2611 75.6907 79.2627 78.0206ZM85.1694 78.0165C85.1699 78.7446 84.5645 79.3275 83.8072 79.328C83.0499 79.3285 82.4437 78.7465 82.4432 78.0184C82.4428 77.2903 83.0482 76.7074 83.8054 76.7069C84.5627 76.7064 85.1689 77.2884 85.1694 78.0165Z" fill="white"/>
<path d="M96.3772 78.0088C96.3809 83.3965 100.927 87.6163 106.38 87.6125C111.983 87.6087 116.373 83.2373 116.369 77.9951C116.365 72.6074 111.819 68.3876 106.367 68.3914C100.914 68.3951 96.3736 72.7666 96.3772 78.0088ZM113.491 77.9971C113.494 81.7831 110.315 84.6976 106.529 84.7001C102.591 84.7028 99.5602 81.647 99.5577 78.0066C99.5551 74.2206 102.734 71.3061 106.52 71.3035C110.306 71.301 113.489 74.3567 113.491 77.9971Z" fill="white"/>
<path d="M101.981 78.0052C101.982 80.335 103.952 82.2267 106.376 82.225C108.799 82.2234 110.766 80.329 110.765 77.9992C110.763 75.6693 108.793 73.7777 106.37 73.7793C103.947 73.781 101.979 75.6753 101.981 78.0052ZM107.887 78.0011C107.888 78.7292 107.282 79.3121 106.525 79.3126C105.768 79.3131 105.162 78.7311 105.161 78.003C105.161 77.2749 105.766 76.6921 106.523 76.6915C107.28 76.691 107.887 77.2731 107.887 78.0011Z" fill="white"/>
<path d="M51.1077 99.8822C51.1114 105.27 55.6578 109.49 61.1101 109.486C66.5625 109.628 71.1031 105.256 71.0995 99.8685C71.0958 94.4808 66.5493 90.261 61.097 90.2647C55.4932 90.2686 51.1041 94.64 51.1077 99.8822ZM67.9189 99.8707C67.9215 103.657 64.743 106.571 60.9567 106.574C57.1705 106.722 53.9879 103.666 53.9853 99.8802C53.9827 96.0942 57.1612 93.1797 60.9475 93.1772C64.8853 93.1745 67.9165 96.2303 67.9189 99.8707Z" fill="white"/>
<path d="M56.711 99.8782C56.7126 102.208 58.6827 104.1 61.106 104.098C63.5293 104.242 65.4968 102.202 65.4952 99.8722C65.4936 97.5424 63.5235 95.6507 61.1002 95.6524C58.677 95.654 56.7094 97.5484 56.711 99.8782ZM62.3147 99.8744C62.3152 100.602 61.7098 101.185 60.9525 101.186C60.1954 101.332 59.5891 100.604 59.5886 99.8762C59.5881 99.1482 60.1935 98.5653 60.9508 98.5648C61.708 98.5643 62.3142 99.1463 62.3147 99.8744Z" fill="white"/>
<path d="M73.8255 99.8666C73.8291 105.254 78.3756 109.474 83.8279 109.47C89.2803 109.612 93.8209 105.241 93.8172 99.8529C93.8135 94.4651 89.2671 90.2454 83.8148 90.2491C78.211 90.253 73.8219 94.6244 73.8255 99.8666ZM90.6367 99.8551C90.6393 103.641 87.4608 106.556 83.6745 106.558C79.8882 106.706 76.7056 103.651 76.7031 99.8646C76.7005 96.0786 79.879 93.1641 83.6653 93.1615C87.6031 93.1588 90.6342 96.2147 90.6367 99.8551Z" fill="white"/>
<path d="M79.4287 99.8626C79.4303 102.192 81.4005 104.084 83.8238 104.082C86.2471 104.226 88.2146 102.186 88.213 99.8566C88.2114 97.5267 86.2412 95.6351 83.818 95.6367C81.3947 95.6384 79.4272 97.5327 79.4287 99.8626ZM85.0325 99.8587C85.033 100.587 84.4276 101.17 83.6703 101.17C82.9132 101.316 82.3068 100.589 82.3063 99.8606C82.3059 99.1325 82.9113 98.5497 83.6685 98.5491C84.4258 98.5486 85.032 99.1307 85.0325 99.8587Z" fill="white"/>
<path d="M96.5432 99.8509C96.5469 105.239 101.093 109.458 106.546 109.455C111.998 109.597 116.539 105.225 116.535 99.8373C116.531 94.4495 111.985 90.2298 106.533 90.2335C100.929 90.2373 96.5396 94.6088 96.5432 99.8509ZM113.354 99.8394C113.357 103.625 110.179 106.54 106.392 106.543C102.606 106.691 99.4234 103.635 99.4208 99.849C99.4182 96.063 102.597 93.1485 106.383 93.1459C110.321 93.1432 113.352 96.1991 113.354 99.8394Z" fill="white"/>
<path d="M102.147 99.8472C102.149 102.177 104.119 104.069 106.543 104.067C108.966 104.211 110.933 102.171 110.932 99.8412C110.93 97.5113 108.96 95.6197 106.537 95.6214C104.113 95.623 102.146 97.5174 102.147 99.8472ZM107.751 99.8434C107.752 100.571 107.146 101.154 106.389 101.155C105.783 101.301 105.026 100.573 105.025 99.8452C105.025 99.1172 105.63 98.5343 106.387 98.5338C107.145 98.5332 107.751 99.1153 107.751 99.8434Z" fill="white"/>
<path d="M0.019748 29.7306L0.0781057 115.061C0.0787032 115.935 0.684913 116.517 1.59363 116.516L125.482 116.432C126.391 116.431 126.996 115.848 126.996 114.974L126.937 29.6438C126.937 28.7701 126.33 28.1881 125.422 28.1887L1.53328 28.2735C0.624563 28.2741 0.0191504 28.8569 0.019748 29.7306ZM123.758 31.1022L123.814 113.52L3.10617 113.603L3.0498 31.1847L123.758 31.1022Z" fill="white"/>
</g>
<defs>
<clipPath id="clip0">
<rect width="122.026" height="126.918" fill="white" transform="translate(0.0830078 122.112) rotate(-90.0392)"/>
</clipPath>
</defs>
</svg>
