<svg width="12" height="8" viewBox="0 0 12 8" fill="none" xmlns="http://www.w3.org/2000/svg">
<path d="M5.76006 7.43989C5.44244 7.44028 5.14004 7.30386 4.93014 7.06549L0.22086 1.71253C-0.0887059 1.3436 -0.0471378 0.79502 0.314484 0.476955C0.676106 0.15889 1.22551 0.187683 1.5519 0.541807L5.66982 5.22277C5.69261 5.24876 5.72549 5.26367 5.76006 5.26367C5.79463 5.26367 5.82752 5.24876 5.8503 5.22277L9.96822 0.541807C10.175 0.295406 10.499 0.180319 10.8148 0.241082C11.1307 0.301845 11.3889 0.528924 11.4895 0.834448C11.59 1.13997 11.5173 1.47601 11.2993 1.71253L6.59142 7.06357C6.38116 7.30252 6.07835 7.43959 5.76006 7.43989Z" fill="black"/>
</svg>
