<svg width="130" height="30" viewBox="0 0 130 30" fill="none" xmlns="http://www.w3.org/2000/svg">
<path d="M29.8169 28.0494L21.1021 19.3346C22.755 17.2939 23.75 14.6996 23.75 11.875C23.75 5.32718 18.4228 0 11.875 0C5.32712 0 0 5.32718 0 11.875C0 18.4229 5.32718 23.7501 11.875 23.7501C14.6996 23.7501 17.2939 22.755 19.3346 21.1022L28.0493 29.817C28.2935 30.061 28.6891 30.061 28.9333 29.817L29.8169 28.9332C30.061 28.6891 30.061 28.2934 29.8169 28.0494ZM11.875 21.2501C6.70536 21.2501 2.50002 17.0447 2.50002 11.875C2.50002 6.70537 6.70536 2.50002 11.875 2.50002C17.0447 2.50002 21.2501 6.70537 21.2501 11.875C21.2501 17.0447 17.0447 21.2501 11.875 21.2501Z" fill="white"/>
<path d="M83.136 24V6.96H90.336C91.072 6.96 91.744 7.112 92.352 7.416C92.976 7.72 93.512 8.136 93.96 8.664C94.408 9.176 94.752 9.752 94.992 10.392C95.248 11.016 95.376 11.656 95.376 12.312C95.376 13.144 95.216 13.92 94.896 14.64C94.592 15.36 94.152 15.968 93.576 16.464C93 16.96 92.336 17.28 91.584 17.424L95.76 24H93.864L89.856 17.712H84.816V24H83.136ZM84.816 16.224H90.384C91.056 16.224 91.64 16.04 92.136 15.672C92.632 15.288 93.016 14.8 93.288 14.208C93.56 13.616 93.696 12.984 93.696 12.312C93.696 11.624 93.536 10.992 93.216 10.416C92.912 9.824 92.496 9.352 91.968 9C91.44 8.632 90.864 8.448 90.24 8.448H84.816V16.224ZM105.752 24.12C104.408 24.12 103.272 23.88 102.344 23.4C101.432 22.92 100.696 22.272 100.136 21.456C99.5757 20.64 99.1757 19.728 98.9357 18.72C98.6957 17.696 98.5757 16.64 98.5757 15.552V6.96H100.232V15.552C100.232 16.448 100.32 17.32 100.496 18.168C100.688 19 100.992 19.752 101.408 20.424C101.824 21.096 102.384 21.632 103.088 22.032C103.792 22.416 104.672 22.608 105.728 22.608C106.816 22.608 107.712 22.408 108.416 22.008C109.136 21.608 109.704 21.072 110.12 20.4C110.536 19.712 110.824 18.952 110.984 18.12C111.16 17.272 111.248 16.416 111.248 15.552V6.96H112.928V15.552C112.928 16.688 112.8 17.776 112.544 18.816C112.288 19.84 111.872 20.752 111.296 21.552C110.736 22.352 110 22.984 109.088 23.448C108.176 23.896 107.064 24.12 105.752 24.12Z" fill="white" fill-opacity="0.9"/>
<path d="M116 13.5L123 20.5L130 13.5H116Z" fill="white"/>
</svg>
