<svg width="70" height="56" viewBox="0 0 70 56" fill="none" xmlns="http://www.w3.org/2000/svg">
<path d="M18.663 34.5987H50.7231V38.3357H18.663V34.5987Z" fill="white"/>
<path d="M23.3286 43.176H46.0571V46.9131H23.3286V43.176Z" fill="white"/>
<path d="M69.386 17.4438H41.3916V0.288879H27.9945V17.4438H0V29.7583H5.23336L14.5648 55.4906H54.821L64.1526 29.7583H69.386V17.4438ZM34.693 28.1655C31.9548 28.1655 29.7271 26.1179 29.7271 23.601C29.7271 21.084 31.9548 19.0364 34.693 19.0364C37.4312 19.0364 39.6588 21.084 39.6588 23.601C39.6588 26.1179 37.4312 28.1655 34.693 28.1655ZM37.326 4.02595V15.6603C36.4925 15.4264 35.6087 15.2994 34.693 15.2994C33.7773 15.2994 32.8934 15.4264 32.06 15.6603V4.02595H37.326ZM4.06558 21.1808H26.054C25.7995 21.9469 25.6614 22.7594 25.6614 23.601C25.6614 24.4427 25.7994 25.2551 26.054 26.0212H4.06558V21.1808ZM51.8907 51.7535H17.4952L9.51889 29.7583H28.6422C30.2447 31.0902 32.3675 31.9026 34.693 31.9026C37.0185 31.9026 39.1411 31.0902 40.7437 29.7583H59.8671L51.8907 51.7535ZM65.3204 26.0212H43.3318C43.5863 25.2551 43.7244 24.4427 43.7244 23.601C43.7244 22.7592 43.5864 21.9469 43.3318 21.1808H65.3204V26.0212Z" fill="white"/>
</svg>
