<svg width="30" height="30" viewBox="0 0 30 30" fill="none" xmlns="http://www.w3.org/2000/svg">
<g clip-path="url(#clip0)">
<path d="M0.0293446 21.1799C0.0996246 22.7739 0.357395 23.8698 0.726654 24.8194C1.10759 25.8274 1.69364 26.7298 2.46146 27.48C3.21165 28.2418 4.12003 28.8338 5.11632 29.2088C6.0714 29.5781 7.16154 29.8359 8.75556 29.9061C10.3615 29.9824 10.8713 30 14.9444 30C19.0174 30 19.5272 29.9824 21.1272 29.9121C22.7212 29.8418 23.8171 29.5838 24.7664 29.2148C25.7746 28.8338 26.6771 28.2478 27.4272 27.48C28.1891 26.7298 28.7809 25.8214 29.1561 24.8251C29.5254 23.8698 29.7831 22.7799 29.8534 21.1859C29.9296 19.58 29.9473 19.0701 29.9473 14.9971C29.9473 10.924 29.9296 10.4142 29.8594 8.81422C29.7891 7.22021 29.5311 6.12433 29.1618 5.17475C28.7809 4.16678 28.1891 3.26435 27.4272 2.51416C26.6771 1.75229 25.7687 1.16029 24.7724 0.785309C23.8171 0.41605 22.7272 0.158279 21.1329 0.0879993C19.5332 0.0174885 19.0231 9.15527e-05 14.9501 9.15527e-05C10.877 9.15527e-05 10.3672 0.0174885 8.76723 0.0879993C7.17322 0.158279 6.07735 0.41605 5.12799 0.785309C3.11184 1.5648 1.51782 3.15882 0.738329 5.17475C0.369301 6.13006 0.1113 7.22021 0.0410194 8.81422C-0.0292606 10.4142 -0.0468884 10.924 -0.0468884 14.9971C-0.0468884 19.0701 -0.0409355 19.58 0.0293446 21.1799ZM2.7309 8.93143C2.79546 7.4663 3.04156 6.67513 3.24668 6.14768C3.75077 4.84074 4.78804 3.80348 6.09498 3.29938C6.62242 3.09426 7.41932 2.84817 8.87872 2.78384C10.4611 2.71333 10.9356 2.69593 14.9384 2.69593C18.9412 2.69593 19.4217 2.71333 20.9983 2.78384C22.4634 2.84817 23.2546 3.09426 23.7821 3.29938C24.4324 3.53975 25.0244 3.92069 25.505 4.41883C26.0031 4.9053 26.384 5.49135 26.6244 6.14173C26.8295 6.66918 27.0756 7.4663 27.1399 8.92548C27.2105 10.5078 27.2278 10.9826 27.2278 14.9854C27.2278 18.9882 27.2105 19.4687 27.1399 21.0451C27.0756 22.5102 26.8295 23.3014 26.6244 23.8288C26.384 24.4794 26.0031 25.0712 25.499 25.552C25.0128 26.0501 24.4267 26.431 23.7761 26.6712C23.2487 26.8763 22.4515 27.1224 20.9924 27.187C19.41 27.2572 18.9352 27.2749 14.9327 27.2749C10.9239 27.2749 10.4494 27.2572 8.87277 27.187C7.40764 27.1224 6.61647 26.8763 6.08902 26.6712C5.43864 26.431 4.84664 26.0501 4.36613 25.552C3.86798 25.0655 3.48705 24.4794 3.24668 23.8288C3.04156 23.3014 2.79546 22.5045 2.7309 21.0451C2.66062 19.4627 2.643 18.9882 2.643 14.9854C2.643 10.9826 2.66062 10.5138 2.7309 8.93143Z" fill="#373131"/>
<path d="M14.9448 23C19.1994 23 22.6514 19.5482 22.6514 15.2934C22.6514 11.0386 19.1994 7.58682 14.9448 7.58682C10.69 7.58682 7.2382 11.0386 7.2382 15.2934C7.2382 19.5482 10.69 23 14.9448 23ZM14.9448 10.2943C17.705 10.2943 19.9439 12.533 19.9439 15.2934C19.9439 18.0538 17.705 20.2925 14.9448 20.2925C12.1844 20.2925 9.94571 18.0538 9.94571 15.2934C9.94571 12.533 12.1844 10.2943 14.9448 10.2943Z" fill="#373131"/>
<path d="M5.13391 6.20087C5.13391 5.20732 5.93951 4.40173 6.93328 4.40173C7.92683 4.40173 8.73242 5.20732 8.73242 6.20087C8.73242 7.19464 7.92683 8 6.93328 8C5.93951 8 5.13391 7.19464 5.13391 6.20087Z" fill="#373131"/>
</g>
<defs>
<clipPath id="clip0">
<rect width="30" height="30" fill="white" transform="translate(30 30) rotate(-180)"/>
</clipPath>
</defs>
</svg>
