<svg width="22" height="33" viewBox="0 0 22 33" fill="none" xmlns="http://www.w3.org/2000/svg">
<path d="M11 0C4.93464 0 0 5.14578 0 11.4706C0 19.4203 11.0108 33 11.0108 33C11.0108 33 22 19.0294 22 11.4706C22 5.14578 17.0655 0 11 0ZM14.3189 14.8293C13.4038 15.7834 12.202 16.2605 11 16.2605C9.79821 16.2605 8.59603 15.7834 7.68126 14.8293C5.85115 12.921 5.85115 9.81601 7.68126 7.90759C8.56744 6.98309 9.74625 6.47391 11 6.47391C12.2537 6.47391 13.4324 6.98329 14.3189 7.90759C16.149 9.81601 16.149 12.921 14.3189 14.8293Z" fill="white" fill-opacity="0.9"/>
</svg>
