<svg width="114" height="105" viewBox="0 0 114 105" fill="none" xmlns="http://www.w3.org/2000/svg">
<g clip-path="url(#clip0)">
<path d="M30.3936 58.7034H82.6057V64.387H30.3936V58.7034Z" fill="white"/>
<path d="M37.9922 71.7485H75.0072V77.4321H37.9922V71.7485Z" fill="white"/>
<path d="M113 32.6131H67.4091V6.52271H45.5911V32.6131H0V51.3418H8.52289L23.7198 90.4774H89.2799L104.477 51.3418H113V32.6131ZM56.5 48.9195C52.0407 48.9195 48.4128 45.8052 48.4128 41.9773C48.4128 38.1494 52.0407 35.0352 56.5 35.0352C60.9593 35.0352 64.5872 38.1494 64.5872 41.9773C64.5872 45.8052 60.9593 48.9195 56.5 48.9195ZM60.788 12.2063V29.9007C59.4307 29.5449 57.9913 29.3518 56.5 29.3518C55.0087 29.3518 53.5693 29.5449 52.212 29.9007V12.2063H60.788ZM6.62109 38.2966H42.4308C42.0164 39.4618 41.7915 40.6974 41.7915 41.9773C41.7915 43.2575 42.0161 44.4931 42.4308 45.6582H6.62109V38.2966ZM84.5077 84.7938H28.4921L15.5022 51.3418H46.6458C49.2556 53.3675 52.7127 54.6031 56.5 54.6031C60.2873 54.6031 63.7441 53.3675 66.354 51.3418H97.4978L84.5077 84.7938ZM106.379 45.6582H70.5689C70.9834 44.4931 71.2083 43.2575 71.2083 41.9773C71.2083 40.6972 70.9836 39.4618 70.5689 38.2966H106.379V45.6582Z" fill="white"/>
</g>
<circle cx="91" cy="82" r="23" fill="#F4393A"/>
<path d="M85.9336 75.2422H95.5898V76.2969H86.9648L86.5664 82.4141C88.0273 82.2422 89.2617 82.1562 90.2695 82.1562C94.2539 82.1562 96.2461 83.7188 96.2461 86.8438C96.2461 90.3594 94.1758 92.1172 90.0352 92.1172C88.4727 92.1172 86.9102 91.8828 85.3477 91.4141V90.2422C86.9102 90.7891 88.5117 91.0625 90.1523 91.0625C93.3945 91.0625 95.0156 89.6562 95.0156 86.8438C95.0156 84.4219 93.4336 83.2109 90.2695 83.2109C88.5117 83.2109 86.8711 83.4062 85.3477 83.7969L85.9336 75.2422Z" fill="white"/>
<defs>
<clipPath id="clip0">
<rect width="113" height="97" fill="white"/>
</clipPath>
</defs>
</svg>
